<?xml version="1.0" encoding="utf-8"?>
<!-- Generator: Adobe Illustrator 27.5.0, SVG Export Plug-In . SVG Version: 6.00 Build 0)  -->
<svg version="1.1" xmlns="http://www.w3.org/2000/svg" xmlns:xlink="http://www.w3.org/1999/xlink" x="0px" y="0px"
	 viewBox="0 0 500 500" style="enable-background:new 0 0 500 500;" xml:space="preserve">
<g id="BACKGROUND">
	<rect style="fill:none;" width="500" height="500"/>
</g>
<g id="OBJECTS">
	<g>
		<path style="fill:#E8DFD0;" d="M326.083,359.87c-0.005,0.003-0.011,0.007-0.016,0.01c0.083,0.088,0.166,0.176,0.248,0.266
			C326.238,360.054,326.16,359.962,326.083,359.87z"/>
		<path style="fill:#E8DFD0;" d="M136.228,319.136c-0.004,0-0.008,0-0.012,0c-0.005,0.004-0.01,0.008-0.014,0.013
			c0.009-0.004,0.019-0.007,0.028-0.011C136.229,319.137,136.229,319.137,136.228,319.136z"/>
		<path style="fill:#E8DFD0;" d="M454.836,318.026c-6.867-5.813-13.91-11.375-19.567-18.461
			c-9.163-11.299-16.289-20.214-27.397-24.336c0.383-0.817,0.797-1.619,1.142-2.452c2.4-4.867,5.285-9.681,8.133-14.328
			c2.392-4.237,5.069-8.371,6.926-12.883c2.099-5.218-2.958-9.542-7.457-11.082c-11.597-4.552-24.115-5.796-36.391-7.324
			c-2.518-0.341-5.042-0.512-7.567-0.593c7.93-4.115,14.074-14.413,18.087-23.867c0.741,0.049,1.481,0.112,2.224,0.135
			c1.059,0.09,2.098,0.133,3.11,0.133c11.344,0,19.918-5.398,29.969-10.434c2.875-1.199,5.926-1.863,8.996-2.336
			c0.937-0.32,3.336,0.055,3.207-1.41c-0.078-0.453-0.492-0.738-0.875-0.957c-2.305-0.996-4.75-1.644-7.148-2.379
			c-4.664-1.352-9.238-2.992-13.746-4.793c-9.062-3.691-18.172-7.262-27.199-11.039c-17.519-7.574-37.25-14.301-56.262-8.383
			c-0.699,0.218-1.374,0.534-2.057,0.818c-0.241-0.996-0.509-1.988-0.803-2.975c5.606-3.26,11.029-6.775,16.597-10.153
			c8.617-5.211,17.563-9.848,25.973-15.402c14.637-9.899,28.945-20.371,42.355-31.891c10.695-9.223,20.664-20.48,23.738-34.648
			c0.859-3.637,0.977-7.394,1.641-11.067c0.641-3.219,2.305-5.894,3.969-8.75c0.617-1.348,2.012-2.594,2.035-4.109
			c-0.894-1.863-4.082,0.938-5.445,1.649c-4.066,2.793-7.195,6.601-11.484,9.148c-4.566,3.027-10.019,4.434-15.008,6.605
			c-3.5,1.391-6.313,3.902-9.305,6.066c-6.203-4.387-13.024,2.113-16.957,6.746c-6.941,7.985-9.629,18.34-12.797,28.18
			c-3.234,9.664-5.301,19.883-11.289,28.371c-8.984,11.853-22.045,19.617-34.604,27.323c-0.332-0.992-0.707-1.978-1.094-2.964
			c5.363-2.733,10.736-5.462,15.651-8.965c10.047-6.703,17.762-16.734,21.344-28.297c2.57-7.809,4.563-15.953,4.254-24.235
			c-0.187-4.117-0.371-8.27-1.07-12.34c-0.727-4.906-2.973-9.406-3.895-14.254c-0.457-2.82,0.219-5.703,0.445-8.543
			c0.012-0.449-0.086-0.934-0.48-1.192c-1.473-0.566-2.488,1.32-3.43,2.188c-2.754,3.043-5.246,6.321-7.395,9.816
			c-2.035,3.047-3.832,6.512-7.047,8.472c-5.434,2.844-11.445,4.773-16.215,8.762c-4.426,3.332-6.562,8.566-6.851,13.992
			c-0.586,7.281,0.32,14.631,0.328,21.943c0.209,6.808-0.443,13.723-1.931,20.44c-1.276-2.002-2.647-4.006-4.17-6.021
			c-4.445-6.535-7.617-13.828-12.062-20.355c-3.023-4.797-5.965-5.586-10.848-2.73c-23.389,11.585-42.817,14.501-53.154,39.661
			c-1.802-1.172-3.751-2.036-5.773-2.44c-0.402-1.928-2.007-4.758-2.51-5.538c-7.766-12.086-23.051-16.434-36.676-17.258
			c-4.891-0.074-10.48-2.027-14.863,0.926c-2.727,1.652-3.828,4.703-5.082,7.469c-1.641,3.703-2.902,7.563-3.945,11.476
			c-1.605,5.902-3.309,11.797-4.422,17.82c-0.032,0.187-0.044,0.377-0.074,0.564c-0.568-0.639-1.322-1.245-1.651-1.691
			c-3.52-3.549-7.39-6.723-11.727-9.226c-11.794-7.749-26.478-9.913-40.262-7.551c-11.843,1.979-11.798,4.325-11.195,15.312
			c0.148,7.742,0.183,15.49,0.527,23.227c0.575,8.008,1.607,16.011,3.414,23.84c0.77,3.325,1.762,6.584,2.866,9.806
			c-0.832-0.401-1.717-0.736-2.117-1.021c-2.599-1.436-13.926-5.55-14.344-0.574c0.103,1.018,0.834,1.824,1.375,2.656
			c1.751,2.393,3.493,4.783,5.234,7.184c5.789,8.201,11.887,16.203,18.808,23.471c-4.493-0.154-9,0.312-13.416,1.125
			c-12.23,2.02-24.33,6.048-35,12.402c-8.633,5.648-19.061,12.732-22.696,22.785c-0.957,5.016,8.944,7.401,12.398,9.505
			c9.256,4.712,18.041,10.366,27.365,15.005c-14.585,14.557-14.443,33.567-28.727,51.841c-1.285,1.465-2.649,2.867-4.184,4.074
			c-0.898,0.965-8.297,5.305-6.043,6.484c0.129,0.031,0.254,0.043,0.379,0.043c0.699,0,1.375-0.414,2.031-0.629
			c2.164-0.824,4.379-1.492,6.648-1.984c7.406-1.504,15.16-0.273,22.582,0.832c6.586,0.895,13.43,2.93,19.922,0.473
			c2.562-0.945,4.848-2.484,7.008-4.129c0.652-0.637,1.309-0.09,1.922,0.285c2.375,1.359,4.934,2.348,7.684,2.531
			c6.674,0.883,14.128-0.749,21.066-3.715c1.064,1.583,2.857,2.62,5.772,2.62c0.057,0,0.114,0,0.172-0.001
			c5.283-0.26,10.47-0.925,15.71-1.233c-3.122,2.806-6.607,5.277-10.279,7.215c-9.027,4.191-18.828,6.328-28.539,8.32
			c-17.387,3.418-48.488,4.027-51.098,26.687c-6.43,1.457-11.566,6.449-14.301,12.332c-2.328,6.277-2.817,13.027-5.809,19.113
			c-1.238,2.582-3.16,4.645-5.148,6.766c-0.891,1.168-4.777,4.348-1.695,5.047c13.949-2.543,27.398-7.949,39.453-15.41
			c11.074-7.289,21.16-15.992,31.359-24.434c8.242-6.699,16.66-13.168,24.863-19.918c9.36-7.427,18.533-15.814,25.091-25.836
			c1.275-0.016,2.545-0.056,3.833,0.01c1.736,0.068,3.477,0.097,5.218,0.09c-5.744,8.728-11.53,19.255-8.263,28.969
			c0.406,1.211,1.203,2.281,1.543,3.496c-0.57,0.605-1.219,1.148-1.793,1.754c-4.145,4.149-6.832,10.008-6.891,15.898
			c0.164,5.227,2.113,10.125,3.289,15.16c0.758,5.133,1.875,10.293,1.918,15.504c0.047,1.547-0.106,3.149,0.305,4.652
			c0.105,0.328,0.301,0.668,0.656,0.758c0.039,0.004,0.074,0.008,0.113,0.008c0.801,0,1.168-0.977,1.551-1.586
			c2.078-4.063,4.406-7.969,7.449-11.426c4.449-5.539,11.75-7.77,16.551-12.953c2.254-2.395,3.817-5.34,4.902-8.43
			c0.5-1.07,0.625-2.68,1.543-3.402c7.887,1.691,11.894-7.094,12.894-13.539c1.797-11.121-1.566-22.145-1.222-33.293
			c0.105-2.953,0.119-6.01,0.211-9.043c4.689-2.215,9.233-5.564,13.444-9.699c1.306,5.122,3.369,10.036,5.42,14.894
			c10.602,22.094,28.395,48.332,52.227,57.09c4.773,1.574,7.687,0.653,9.871-0.266c2.301-0.969,3.797-1.938,5.824,0
			c9.758,10.805,18.352,8.152,31.234,10.012c12.414,1.891,24.051,8.102,33.434,16.391c2.015,1.84,4.191,3.902,6.07,5.93
			c0.527,0.531,1,1.254,1.773,1.406c0.055,0.004,0.113,0.008,0.164,0.008c2.34,0,0.203-5.742,0.293-7.344
			c-0.652-10.93,0.461-21.934,1.086-32.859c0.547-11.094,1.265-22.195,1.176-33.309c-0.461-5.381-1.856-10.682-3.906-15.698
			c1.259-10.198-1.982-20.546-6.824-29.47c-0.055-0.134-0.121-0.261-0.177-0.394c5.151,1.285,10.314,2.544,15.613,3.003
			c1.723,0.191,3.598,0.32,5.516,0.32c6.785,0,14.051-1.652,16.727-8.313c5.59,3.594,12.461,2.961,18.625,1.414
			c13.836-3.258,26.172-13.949,40.945-12.359c0.637,0.066,1.469-0.16,1.52-0.91C457.652,320.029,455.863,319.178,454.836,318.026z
			 M395.794,114.99c-3.771,2.8-7.567,5.574-11.389,8.312c6.503-5.14,12.684-10.684,18.519-16.581
			c2.343-0.645,4.626-1.577,6.791-2.714C405.142,107.775,400.42,111.371,395.794,114.99z M418.293,96.456
			c-2.162,1.128-4.394,2.13-6.538,3.296c1.816-0.535,3.699-1.337,5.46-2.308c-1.987,1.852-4.034,3.644-6.121,5.394
			c-2.649,1.301-5.31,2.58-7.99,3.693c3.222-3.265,6.326-6.648,9.336-10.113c2.716-0.583,5.508-1.584,7.996-2.871
			c0.695-0.384,1.365-0.819,2.018-1.285C421.107,93.698,419.719,95.095,418.293,96.456z M437.852,62.407
			c-0.502,4.478-1.848,8.747-3.678,12.824c-3.704,2.511-7.291,5.713-10.802,8.513c4.115-1.944,7.188-5.14,10.554-7.982
			c-1.225,2.645-2.608,5.226-4.234,7.673c-1.592,2.267-3.342,4.395-5.153,6.466c-3.818,2.467-7.665,4.939-11.967,6.368
			c0.468-0.54,0.956-1.061,1.419-1.605c2.016-2.218,3.882-4.54,5.674-6.913c2.387-1.15,4.75-2.827,6.803-4.539
			c-2.235,1.426-4.612,2.886-6.777,4.506c2.912-3.859,5.576-7.889,8.077-12.028c3.232-1.803,6.099-4.399,8.368-7.326
			c-2.357,2.465-5.206,4.596-7.998,6.708c3.299-5.502,6.359-11.163,9.412-16.811c0.372-0.665,0.762-1.354,1.149-2.034
			C438.341,58.275,438.141,60.35,437.852,62.407z M423.714,58.717c-2.184,5.054-3.539,10.458-4.458,15.884
			c1.9-5.083,2.818-10.767,4.572-15.929c0.337-0.136,0.685-0.26,1.017-0.401c3.485-1.387,6.621-3.484,9.586-5.758
			c3.18-2.531,5.801-5.625,9.461-7.543c-1.934,3.113-4.106,6.223-4.961,9.84c-0.029,0.126-0.036,0.256-0.063,0.382
			c-0.557,0.898-1.105,1.796-1.647,2.699c-1.102,1.744-2.143,3.527-3.189,5.307c1.837-4.55,3.965-9.018,5.426-13.725
			c-2.464,4.601-4.535,9.619-6.016,14.706c-3.771,6.465-7.451,12.989-11.834,19.059c1.049-2.141,1.909-4.412,2.798-6.55
			c2.449-6.313,4.065-12.863,5.582-19.449c0.134-0.581,0.407-1.206,0.531-1.719c-0.33,0.617-0.618,1.254-0.859,1.91
			c-2.43,6.389-3.908,13.088-6.223,19.519c-1,2.615-1.784,5.399-3.006,7.934c-0.319,0.42-0.591,0.87-0.918,1.284
			c-3.877,4.956-8.081,9.642-12.432,14.19c7.864-10.525,9.233-24.416,12.628-36.849c0.366-1.266,0.773-2.511,1.286-3.725
			C421.914,59.44,422.814,59.078,423.714,58.717z M397.965,67.482c-2.49,7.683-3.637,15.915-5.261,23.859
			c2.617-7.691,3.423-15.982,5.382-23.913c0.974-0.365,1.992-0.581,3.054-0.581c0.134,0,0.269,0.003,0.404,0.01
			c1.262,0.172,2.184,1.192,3.395,1.489c0.488,0.07,0.977-0.09,1.391-0.348c1.699-1.211,3.195-2.703,4.977-3.809
			c2.888-1.893,6.234-3.113,9.538-4.347c-0.348,0.597-0.675,1.25-0.966,1.866c-2.568,5.696-3.431,11.952-4.943,17.978
			c-1.916,7.409-4.257,14.936-8.511,21.368c-4.908,5.085-10.058,9.929-15.397,14.556c3.663-5.521,6.43-11.659,8.519-17.975
			c3.143-8.017,4.379-16.545,4.652-25.113c-0.475,1.584-0.864,3.392-1.25,5.07c-2.254,13.514-5.987,27.028-12.951,38.906
			c-1.326,1.138-2.622,2.312-3.967,3.424c-3.104,2.516-6.327,4.903-9.592,7.242c3.736-6.791,5.644-14.733,8.089-22.056
			c3.394-11.888,6.413-23.895,10.106-35.696C395.678,68.623,396.786,67.941,397.965,67.482z M378.224,98.24
			c2.723-9.035,5.914-18.211,12.477-25.238c1.084-1.125,2.293-2.314,3.611-3.351c-0.23,0.501-0.452,1.015-0.671,1.503
			c-4.872,12.826-7.484,26.388-11.629,39.453c-1.848,5.679-3.457,11.566-6.105,16.941c-2.558,1.824-5.136,3.624-7.737,5.391
			c2.744-5.729,4.092-12.154,5.026-18.466C374.803,109.569,376.262,104.238,378.224,98.24z M371.885,118.216
			c-1.08,5.09-2.134,10.193-4.096,14.982c-2.026,1.374-4.057,2.738-6.084,4.102c-1.699,1.125-3.433,2.189-5.167,3.252
			C364.897,133.4,368.882,126.357,371.885,118.216z M426.791,292.031c-4.017,2.807-8.732,4.426-13.036,6.74
			c4.614-1.341,9.44-3.47,13.064-6.707c0.947,1.121,1.888,2.245,2.841,3.348c4.101,4.918,8.121,9.926,12.804,14.309
			c0.278,0.264,0.575,0.505,0.857,0.763c-2.202-0.006-4.408-0.033-6.599-0.193c-3.794-1.6-7.665-3.011-11.496-4.324
			c3.911-0.016,7.823-0.81,11.437-2.076c-4.181,0.42-8.288,1.419-12.464,1.789c-3.204-0.894-6.45-1.566-9.716-2.137
			c3.186-1.197,6.31-3.102,8.92-5.163c-3.156,1.535-6.018,3.608-9.178,5.118c-3.525-0.608-7.067-1.115-10.629-1.518
			c6.112-5.342,14.573-7.422,21.111-12.344C425.404,290.435,426.108,291.222,426.791,292.031z M414.205,280.161
			c-4.182,2.931-8.579,5.927-12.847,8.86c4.67-2.225,8.943-5.447,12.89-8.835c0.312,0.194,0.647,0.348,0.954,0.55
			c1.313,0.881,2.529,1.877,3.706,2.918c-5.916,2.304-10.347,7.082-15.5,10.534c0.011,0.003,0.033-0.005,0.031-0.018
			c5.464-3.023,10.386-7.042,15.494-10.496c2.037,1.806,3.901,3.812,5.703,5.88c-7.525,3.124-15.712,6.126-21.245,12.399
			c-2.589-0.291-5.181-0.557-7.773-0.821c-2.209-0.188-4.41-0.439-6.606-0.719c6.231-2.659,12.037-6.568,17.329-10.835
			c-5.55,3.879-11.755,7.136-17.542,10.812c-2.185-0.281-4.363-0.614-6.537-0.973c5.719-2.583,11.216-5.645,15.786-9.994
			c3.785-3.705,6.797-8.082,9.169-12.793C409.643,277.611,411.981,278.785,414.205,280.161z M387.694,229.8
			c10.685,1.579,21.92,2.819,31.571,8.006c0.829,0.533,1.484,1.111,2.009,1.722c-4.701-1.953-10.387-1.102-15.297,0.108
			c4.956-0.61,10.397-1.496,15.328-0.075c1.769,2.083,1.809,4.602,0.162,7.481c-2.93,5.859-6.394,11.413-9.73,17.043
			c-4.956,8.481-8.017,18.128-15.668,24.771c-4.6,4.214-10.181,7.153-15.886,9.623c-7.361,3.593-15.404,5.267-23.555,5.805
			c-10.227,0.855-20.569,0.421-30.483-2.453c-11.409-6.624-24.378-9.931-37.983-9.848c-5.202-0.197-10.41-0.153-15.612-0.28
			c0.051-0.045,0.101-0.096,0.153-0.141c2.153-0.681,4.177-1.653,6.059-2.892c8.435-0.429,17.111-2.453,24.595-6.378
			c-8.08,1.769-15.983,4.34-24.073,6.045c2.365-1.631,4.503-3.642,6.453-5.841c13.718-3.512,22.439-16.144,27.859-28.547
			c2.071-4.318,3.381-8.837,4.221-13.453c4.162-2.54,8.942-4.002,13.494-5.767c8.401-3.145,17.436-4.548,26.359-5.656
			C367.652,227.469,377.745,228.383,387.694,229.8z M269.571,291.519c-0.064,0.033-0.121,0.075-0.18,0.116
			c-0.123-0.006-0.247-0.002-0.37-0.008c-0.166-0.007-0.356-0.041-0.547-0.072c1.912-2.048,3.564-4.334,4.79-6.92
			c5.772-12.818,1.873-29.132-5.367-40.617c-5.745-8.811-15.836-13.595-25.473-16.996c-8.67-2.774-17.193-5.932-25.707-9.147
			c1.71-17.905,15.945-20.945,26.864-32.804c0.9-0.892,2.167-1.6,3.526-1.501c3.712,0.416,7.137,1.933,10.421,3.756
			c1.92,2.576,3.605,5.445,5.073,8.33c-1.012-2.883-2.601-5.749-4.69-8.106c0.948,0.535,1.889,1.085,2.818,1.646
			c5.177,3.325,10.034,7.324,14.359,11.762c1.612,1.686,2.996,3.654,4.219,5.652c0.114,0.174,0.296,0.262,0.479,0.333
			c0.429,7.593,2.021,15.079,4.014,22.411c2.428,8.515,5.217,17.193,4.508,26.16c-0.879,9.993-4.764,19.823-10.837,27.907
			c2.59-4.034,4.13-9.278,4.644-14.017c-1.597,4.67-2.357,9.678-4.681,14.063c-1.665,2.212-3.463,4.319-5.446,6.23
			c-0.518,0.451-1.139,0.893-1.751,1.325c4.767-4.162,7.376-10.774,8.268-16.896C275.842,280.016,274.326,286.912,269.571,291.519z
			 M136.47,185.617c8.075-0.049,21.217,7.17,25.263,11.783c5.055,5.213,8.032,11.973,10.052,18.863
			c1.846,5.397,3.585,10.835,5.23,16.293c0.008,0.018,0.026,0.018,0.035,0.034c-4.306,5.436-5.362,12.691-5.786,19.506
			c0.368,9.533,4.927,18.483,9.898,26.43c1.888,2.795,4.218,5.37,6.727,7.825c-5.666-1.884-11.251-4.021-16.44-7.155
			c-13.907-9.008-24.095-23.4-28.77-39.273c-3.144-11.254-4.526-23.018-6.727-34.508c-0.697-4.105-1.616-8.174-2.484-12.242
			c-0.362-2.195-1.271-4.49-0.961-6.707c1.059-0.595,2.414-0.835,3.928-0.848c3.028,2.053,5.498,4.772,8.025,7.39
			C142.377,190.151,139.677,187.238,136.47,185.617z M227.388,170.756c-1.275,1.782-2.35,3.719-3.225,5.743
			c-3.307-3.128-7.594-5.2-10.745-1.033c-0.883-1.679-1.708-3.428-2.868-4.913c4.36-8.311,11.903-15.486,20.888-18.559
			c0.337-0.099,0.669-0.119,1.004-0.177C226.295,155.624,224.085,164.372,227.388,170.756z M276.454,148.487
			c0.874,0.014,1.74,0.145,2.597,0.419c0.779,4.137,0.244,8.605,0.733,12.847c1.21-4.158,1.001-8.775-0.683-12.834
			c1.052,0.342,2.089,0.869,3.112,1.558c4.671,8.704,3.537,18.029,1.47,27.463c-1.87-5.437-7.591-14.172-9.028-15.866
			c-5.03-6.789-7.223-0.903-11.688,2.395c-1.731,1.173-3.536,2.325-5.277,3.54c-0.036-0.054-0.043-0.119-0.088-0.169
			c-0.864-1.193-1.926-2.169-3.066-3.034c0.96-0.89,1.851-1.855,2.744-2.808c3.687-3.622,7.749-6.935,11.723-10.246
			c2.503-2.323,4.958-3.279,7.354-3.268c1.049,2.769,0.931,5.858,1.422,8.784C278.293,154.427,277.863,151.067,276.454,148.487z
			 M310.697,191.427c0.207,0.022,0.416,0.002,0.622,0.044c1.885,0.635,2.002,2.892,2.418,4.576c0.691,3.499,1.285,7.29,1.867,10.863
			c1.785,12.441,2.668,25.383-0.347,37.703c-3.475,11.152-9.307,22.345-18.055,30.198c3.311-4.352,5.506-9.731,6.463-14.967
			c-2.558,5.512-4.515,11.644-8.174,16.546c-2.787,2.251-5.916,4.075-9.285,5.548c2.334-2.716,4.402-5.676,6.164-8.618
			c6.034-9.917,9.004-21.494,10.66-32.904c2.489-16.903-0.026-26.38-4.659-41.872c0.136-0.146,0.297-0.266,0.417-0.425
			c2.671-3.228,7.382-7.163,11.885-6.696c-1.646,1.64-2.749,4.271-3.642,6.516C308.242,195.878,309.271,193.368,310.697,191.427z
			 M301.904,220.027c0.496,4.978,0.498,10.049,0,15.058c-1.336,14.421-4.956,29.169-13.367,41.199
			c-3.614,5.45-8.237,10.078-13.892,13.385c0.623-0.655,1.133-1.228,1.415-1.536c8.202-9.667,13.71-22.147,14.044-34.924
			c0.229-8.894-2.747-17.362-5.094-25.817c-2.056-7.889-3.751-15.931-3.746-24.121c-0.714-17.281,11.918-36.605,1.438-52.443
			c0.957,0.695,1.906,1.48,2.834,2.433c10.602,12.472,6.169,30.296,10.914,44.972C298.459,205.452,300.886,212.578,301.904,220.027z
			 M279.629,203.526c-2.364-3.257-7.193-7.692-8.248-8.581c-4.121-3.553-15.51-12.448-23.393-13.048
			c2.448-7.429,9.663-11.834,15.954-15.998c2.385-1.323,3.68-4.097,6.201-5.119c1.702,0.098,2.614,2,3.669,3.141
			c3.001,4.188,5.646,8.614,7.657,13.384c0.536,1.262,0.888,2.842,1.223,4.223c0.016,0.082,0.094,0.125,0.133,0.196
			c-1.665,7.114-3.447,14.247-3.224,21.176C279.6,203.11,279.628,203.317,279.629,203.526z M254.981,167.642
			c0.401,0.401,0.903,0.891,1.388,1.343c-4.363,3.227-7.995,7.059-8.567,12.906c-2.329-0.138-4.355,0.431-5.76,2.148
			c-1.319,1.499-2.782,2.883-4.317,4.204c0.22-0.801,0.365-1.64,0.411-2.435c-0.296,0.772-0.424,1.696-0.598,2.59
			c-0.837,0.715-1.695,1.412-2.564,2.097c1.152-3.538,1.806-7.361,1.356-11.109c-0.888,3.669-1.179,7.583-1.712,11.387
			c-0.474,0.37-0.946,0.743-1.424,1.108c0.679-3.138,1.239-6.398,0.711-9.639c-0.521,3.122-0.609,6.483-0.798,9.705
			c-0.211,0.161-0.421,0.32-0.632,0.48c-0.684-4.029-2.197-8.056-4.566-11.436c-0.194-0.298-0.411-0.611-0.642-0.93
			c0.595-0.313,1.163-0.707,1.733-1.057c4.805-3.663,8.192-9.038,9.622-14.899c0.244-0.088,0.473-0.203,0.721-0.281
			C244.746,162.236,251.049,163.429,254.981,167.642z M232.349,192.522c-4.058,3.078-8.095,6.074-11.123,9.659
			c-0.066-1.148-0.23-2.303-0.205-2.827c-0.613-8.017-2.835-15.889-7.016-22.787c-0.008-0.013-0.014-0.028-0.022-0.042
			c0.207-0.291,0.379-0.659,0.628-0.842C221.478,170.183,230.091,185.957,232.349,192.522z M234.007,171.432
			c-1.974,2.612-4.046,5.105-6.586,7.211c-0.16,0.182-0.491,0.373-0.777,0.589c-0.708-0.902-1.533-1.834-2.432-2.689
			c3.665-5.031,8.253-10.18,14.315-12.403C237.509,166.775,235.849,169.233,234.007,171.432z M216.239,185.235
			c1.595,4.125,2.293,8.523,2.844,12.892c0.144,1.579,0.283,3.387,0.258,5.016c-0.018,0.441-0.082,1.022,0.064,1.465
			c-2.322,3.562-3.548,7.786-2.949,13.17c-2.574-0.95-5.088-2.054-7.596-3.162c-2.065-0.858-4.343-1.924-6.613-1.301
			c-4.423,2.159-8.209,5.546-12.332,8.258c-3.99,2.627-7.839,5.572-11.113,9.059c-0.131,0.125-0.229,0.269-0.355,0.397
			c-0.953-3.373-2.049-6.704-3.192-10.019c-0.2-13.286,9.412-24.982,17.808-34.788c3.645-4.149,6.953-8.579,10.687-12.641
			c1.182-1.166,2.187-2.571,3.553-3.522c0.839,0.321,1.417,1.125,1.974,1.816C211.891,176.118,214.333,180.595,216.239,185.235z
			 M180.256,273.709c-3.474-6.395-6.667-13.209-7.167-20.636c0.238-7.423,1.364-15.544,6.918-21.058
			c1.363-1.419,2.838-2.714,4.335-3.984c-3.185,14.16,2.929,33.386,13.387,43.002c-10.323-11.416-15.543-27.914-13.155-43.215
			c1.25-1.051,2.552-2.041,3.866-3.019c-3.11,9.209-0.602,19.339,2.7,28.225c-2.567-9.072-5.091-18.822-2.647-28.266
			c1.143-0.849,2.277-1.705,3.451-2.516c-0.329,1.931-0.346,3.988-0.288,5.921c0.235-1.968,0.354-4.063,0.584-6.123
			c3.337-2.298,6.746-4.503,10.069-6.767c1.267-0.633,2.711-0.166,3.969,0.264c2.249,0.827,4.386,1.924,6.612,2.807
			c6.719,2.505,13.41,5.101,20.191,7.426c6.851,2.262,14.134,4.517,20.558,8.047c1.288,3.231,2.527,6.69,3.553,10.096
			c-0.557-3.44-1.791-6.955-3.495-10.066c4.533,2.498,8.648,5.617,11.822,9.907c9.413,13.44,13.586,35.926,0.179,48.178
			c-9.039,7.54-20.238,13.568-32.344,13.412C214.463,304.379,189.086,290.885,180.256,273.709z M409.439,198.611
			c-2.554-2.221-5.713-4.027-8.528-6.004c2.421,2.401,5.618,4.095,8.492,6.018c-2.145,0.779-4.339,1.4-6.579,1.844
			c-2.171-1.621-4.357-3.418-6.428-5.196c1.601,2.119,3.875,3.833,6.215,5.236c-0.661,0.127-1.315,0.284-1.984,0.376
			c-3.046,0.305-6.115,0.284-9.181,0.099c1.191-2.958,2.18-5.791,2.929-8.257c0.313-0.985,0.586-2.009,0.826-3.037
			c2.324,2.919,5.273,5.373,8.571,7.128c-2.635-2.468-5.96-4.714-8.539-7.275c0.253-1.113,0.443-2.225,0.51-3.307
			c0.628,0.101,1.262,0.156,1.892,0.249c3.561,5.022,8.749,8.463,14.173,11.234C411.028,198.044,410.231,198.322,409.439,198.611z
			 M420.101,193.501c-0.781-0.521-1.618-1.056-2.399-1.565c0.622,0.623,1.468,1.15,2.317,1.607c-0.771,0.404-1.536,0.82-2.297,1.241
			c-3.401-2.184-6.504-5.528-10.278-7.113c3.29,2.545,6.394,5.382,10.199,7.155c-0.783,0.433-1.562,0.872-2.338,1.31
			c-1.128,0.55-2.273,1.069-3.431,1.554c-4.343-4.085-10.221-6.754-14.24-11.203c1.86,0.276,3.723,0.535,5.593,0.736
			c2.34,1.212,4.535,2.687,6.626,4.284c-1.569-1.569-3.514-3.157-5.622-4.152c0.125,0.012,0.249,0.037,0.374,0.049
			c9.645,0.707,19.363,0.805,29.008,1.238c0.484,0.007,0.974,0.095,1.418,0.113C429.659,189.021,424.781,191.051,420.101,193.501z
			 M423.994,185.172c-2.447,0.458-4.875,1.005-7.316,1.493c2.376-0.179,5.102-0.626,7.399-1.466
			c3.625,1.273,7.274,2.478,10.968,3.553c-9.722-1.395-19.625-1.041-29.4-2.001c-0.674-0.068-1.34-0.169-2.011-0.249
			c4.829-0.595,9.811-1.619,14.247-3.602C419.916,183.666,421.944,184.451,423.994,185.172z M413.177,181.13
			c-4.008,1.094-7.987,2.351-12.017,3.385c4.057-0.571,8.36-1.719,12.184-3.322c1.43,0.56,2.875,1.079,4.311,1.621
			c-4.778,1.383-9.61,2.621-14.483,3.631c-2.487-0.305-4.959-0.666-7.418-1.103c-0.002-0.701-0.065-1.377-0.196-2.025
			c4.576-1.222,9.539-1.859,14.009-3.619C410.768,180.179,411.971,180.658,413.177,181.13z M398.958,175.387
			c-1.854,0.131-3.801,0.66-5.591,1.195c1.882-0.27,3.843-0.75,5.77-1.121c3.231,1.333,6.471,2.642,9.713,3.946
			c-4.607,0.65-9.136,1.747-13.341,3.741c-0.559-2.485-2.162-4.497-5.744-5.315c-1.093-0.367-2.215-0.62-3.325-0.919
			c3.527-0.45,7.012-1.411,10.456-2.374C397.583,174.824,398.271,175.104,398.958,175.387z M389.642,171.561
			c0.346,0.14,0.691,0.285,1.038,0.426c-1.778,0.692-3.649,1.449-5.459,2.091c1.87-0.347,3.793-1.139,5.556-2.051
			c1.739,0.708,3.475,1.425,5.212,2.14c-3.501,0.48-6.944,1.734-10.433,2.502c-2.679-0.683-5.382-1.27-8.108-1.751
			c-0.764-0.164-1.518-0.306-2.272-0.45c4.385-0.669,8.731-1.727,12.749-3.614C388.498,171.091,389.071,171.326,389.642,171.561z
			 M382.501,168.645c-2.321,0.441-4.691,1.186-7.027,1.713c2.354-0.201,4.794-0.926,7.123-1.674
			c1.758,0.706,3.509,1.423,5.255,2.142c-4.528,0.862-9.042,2.333-13.562,3.469c-4.416-0.803-8.655-1.246-12.763-1.251
			c5.975-2.54,12.568-3.627,18.903-5.215C381.122,168.099,381.813,168.368,382.501,168.645z M370.786,164.364
			c-3.012,0.436-6.071,1.37-8.796,2.767c2.895-1.022,5.992-1.926,9.063-2.68c3.049,0.978,6.064,2.08,9.053,3.249
			c-6.579,0.392-13.112,2.158-18.941,5.348c-3.903,0.02-7.688,0.446-11.386,1.358c-1.619-0.256-3.242-0.477-4.868-0.665
			c1.942-1.162,3.786-2.718,5.788-3.836c5.225-3.065,10.953-5.103,16.836-6.508C368.622,163.704,369.707,164.021,370.786,164.364z
			 M337.763,179.342c-1.806,1.06-3.601,2.271-5.387,3.638c0.251-2.837,0.331-5.604,0.255-8.317c0.836-0.013,1.672-0.015,2.508-0.004
			c1.326,1.452,2.918,2.723,4.74,3.502c-0.682,0.355-1.362,0.74-2.04,1.137c-0.347-0.252-0.718-0.503-1.034-0.743
			C337.035,178.84,337.392,179.098,337.763,179.342z M335.432,174.658c3.618,0.059,7.234,0.336,10.832,0.782
			c-2.11,0.712-4.196,1.59-6.263,2.659C338.559,176.951,336.898,175.839,335.432,174.658z M352.074,160.741
			c-4.762,1.241-8.842,4.728-12.428,8.031c3.939-2.99,8.124-6.118,12.813-7.996c1.689,0.108,3.38,0.206,5.055,0.45
			c3.122,0.438,6.189,1.12,9.22,1.945c-8.162,1.05-15.613,5.352-21.955,10.558c-1.655-0.19-3.312-0.34-4.973-0.451
			c4.639-4.327,10.473-7.38,16.208-10.141c-2.945,1.056-6.233,1.917-8.941,3.668c-2.73,1.801-5.214,4.02-7.393,6.465
			c-2.371-0.155-4.745-0.233-7.12-0.204c-0.014-0.272-0.019-0.546-0.036-0.817c3.25-4.807,7.961-8.657,13.078-11.528
			C347.759,160.619,349.915,160.616,352.074,160.741z M344.143,160.755c-5.052,2.051-9.003,6.381-11.633,11.186
			c-0.21-2.977-0.648-5.889-1.282-8.762C335.423,161.891,339.753,161.066,344.143,160.755z M332.358,183.252
			c19.198-10.225,29.144-10.124,50.614-5.473c2.181,0.485,4.445,1.11,6.662,1.887c2.312,0.641,4.433,2.315,4.379,4.924
			c-0.054,4.639-1.738,9.096-3.345,13.43c-2.099,6.18-5.194,11.966-8.84,17.371c-2.384,3.366-5.176,6.435-8.636,8.774
			c-1.208,0.824-2.531,1.424-3.867,2.078c-0.114,0.081-0.182,0.198-0.244,0.315c-5.257,0.056-10.511,0.525-15.722,1.332
			c-10.943,1.261-21.515,4.327-31.66,8.57c-1.207,0.478-2.367,1.059-3.508,1.676c0.841-5.855,0.924-11.841,0.55-17.817
			c0.624-0.42,0.92-1.292,1.394-1.867c2.289-3.352,4.414-6.82,6.113-10.504c1.746-3.922,3.031-8.031,4.055-12.191
			C331.299,191.423,331.988,187.268,332.358,183.252z M367.962,96.559c-0.106,1.883-0.326,3.756-0.612,5.621
			c-1.561,2.145-3.293,4.206-4.844,6.372c1.734-1.807,3.524-3.907,4.819-6.142c-0.939,5.988-2.709,11.869-4.777,17.548
			c-1.543,3.877-3.586,7.516-6.016,10.876c-4.596,2.34-9.368,4.836-13.865,7.484c4.746-1.896,9.382-4.613,13.783-7.378
			c-3.801,5.226-8.558,9.76-13.977,13.354c-4.606,3.186-9.624,5.76-14.644,8.298c-0.264-0.622-0.534-1.244-0.82-1.865
			c1.139-1.007,2.269-2.027,3.373-3.078c0.312,0.037,0.681,0.05,1.001,0.068c1.573,0.058,3.311-0.214,4.664-0.922
			c-1.876,0.257-3.724,0.681-5.605,0.8c1.706-1.626,3.361-3.306,4.967-5.034c6.498-1.301,13.353-3.72,18.067-8.465
			c-5.521,3.524-11.611,6.32-17.88,8.255c3.024-3.268,5.836-6.724,8.416-10.344c7.915-2.366,15.271-7.394,19.185-14.714
			c-2.956,3.538-6.633,6.36-10.332,9.117c-2.754,1.877-5.605,3.88-8.63,5.276c3.575-5.058,6.646-10.45,9.078-16.156
			c6.05-5.798,10.891-13.076,14.635-20.513C367.949,95.531,367.967,96.046,367.962,96.559z M367.488,85.226
			c-0.909,1.178-1.829,2.348-2.767,3.508c1.02-0.91,1.974-2.083,2.794-3.298c0.31,3.07,0.424,6.165,0.431,9.257
			c-5.134,6.354-9.123,13.555-14.241,19.899c0.335-0.815,0.71-1.612,1.019-2.44c2.433-6.761,4.272-13.742,5.291-20.861
			c3.204-2.496,5.819-6.107,6.971-9.986C367.202,82.603,367.352,83.914,367.488,85.226z M365.86,76.11
			c0.465,1.696,0.829,3.414,1.119,5.148c-2.137,3.348-4.175,6.891-6.927,9.767c0.119-0.85,0.276-1.694,0.37-2.548
			c1.05-8.172,1.32-16.448,2.498-24.6c-0.027,1.246,0.032,2.491,0.29,3.722C363.856,70.505,365.052,73.255,365.86,76.11z
			 M335.975,84.051c0.076,6.778,2.186,13.621,4.819,19.913c-1.609-6.544-4.07-13.166-4.763-19.946
			c3.244-1.811,6.77-3.192,10.096-4.855c1.285,2.502,1.92,5.293,2.985,7.912c-0.622-2.574-1.437-5.82-2.981-7.914
			c0.818-0.409,1.624-0.834,2.408-1.29c3.012-2.113,4.777-5.469,6.769-8.465c0.207-0.34,0.461-0.647,0.675-0.982
			c0.599,1.659,1.046,3.428,1.624,5.095c-0.302-1.648-0.718-3.685-1.488-5.293c2.184-3.402,4.646-6.604,7.416-9.57
			c-0.15,0.76-0.283,1.527-0.391,2.297c-1.28,4.862-1.987,9.846-2.515,14.872c-0.087-3.541-0.802-7.282-2.073-10.5
			c0.955,3.685,1.536,7.444,1.998,11.223c-0.499,4.847-0.928,9.713-1.683,14.519c-0.084-7.054-1.988-14.112-3.676-20.826
			c0.836,7.541,3.159,14.974,3.361,22.569c-0.486,2.745-1.063,5.473-1.9,8.149c-1.372,5.322-3.274,10.471-5.577,15.431
			c0.221-5.518-0.451-11.191-1.264-16.651c-0.859-6.13-2.425-12.187-5.387-17.656c-0.133-0.266-0.273-0.543-0.41-0.82
			c0.141,0.759,0.494,1.673,0.719,2.488c1.973,6.419,3.37,12.867,4.453,19.524c0.667,4.52,1.509,9.043,1.668,13.613
			c-2.398,5.089-5.267,9.945-8.525,14.538c1.01-7.764-1.254-15.785-3.942-23.072c-2.069-6.48-4.228-12.979-5.584-19.651
			c-0.13-0.824-0.164-1.652-0.178-2.486C333.692,85.416,334.813,84.703,335.975,84.051z M330.184,88.329
			c0.745-0.764,1.551-1.436,2.384-2.068c-0.152,1.047-0.148,2.217-0.046,3.295c1.952,14.282,10.605,27.545,9.595,42.18
			c-2.477,3.463-5.171,6.771-8.077,9.894c1.533-11.021-4.183-21.359-8.524-31.212C325.213,102.722,324.37,94.081,330.184,88.329z
			 M325.266,133.415c0.906-6.668,0.469-13.269,0.328-20.004c-0.003-0.69-0.032-1.409-0.055-2.121
			c4.047,9.72,9.186,19.597,8.427,30.422c-0.297,0.319-0.574,0.657-0.875,0.972c-0.198,0.191-0.413,0.378-0.612,0.569
			c0.503-5.189-0.586-10.559-2.198-15.487c1.185,5.02,1.481,10.399,2.071,15.605c-1.123,1.076-2.292,2.134-3.444,3.204
			c0.288-4.296-1.66-8.698-3.644-12.371c1.571,4.025,3.423,8.195,3.444,12.556c-0.835,0.773-1.646,1.554-2.491,2.317
			c-0.935-1.89-1.964-3.776-3.112-5.663C324.152,140.117,324.948,136.698,325.266,133.415z M296.931,114.007
			c4.844-3.039,6.934,1.758,9.281,5.254c3.644,5.945,6.668,12.414,10.656,18.176c10.465,13.918,15.492,28.121,13.723,45.688
			c-0.965,9.305-3.027,18.641-7.43,26.957c-1.372,2.553-2.99,4.951-4.604,7.354c-0.366-4.346-0.92-8.666-1.543-12.892
			c-0.542-3.01-0.983-6.037-1.543-9.043c-0.373-1.838-0.724-3.929-2.316-5.129c-4.112-2.858-12.142,1.865-15.385,6.073
			c-4.373-15.271,0.195-34.572-12.846-46.19c-6.627-5.59-12.365-4.378-18.391,1.243c-4.474,4.009-9.678,7.497-13.195,12.423
			c-0.822-0.507-1.691-0.935-2.591-1.291c-0.056-1.626-2.755-4.724-3.409-5.586c-1.401-1.443-3.029-2.875-4.791-4.098
			C256.803,126.907,270.451,127.049,296.931,114.007z M236.824,152.069c-0.192,0.718-0.219,1.602-0.245,2.358
			c0.17-0.694,0.189-1.568,0.278-2.35c3.301,0.961,6.31,3.372,8.695,5.724c1.138,1.232,2.081,2.626,2.909,4.105
			c-3.77-0.923-7.871-0.653-11.446,0.861c-3.667,1.57-6.655,4.115-9.023,7.182c-1.372-6.223-0.162-13.724,4.739-18.149
			c0.022-0.017,0.047-0.03,0.068-0.047c0.421-0.056,0.838-0.089,1.254-0.086c-1.72,2.521-2.775,5.735-2.534,8.856
			c0.729-2.909,1.137-6.111,2.57-8.854C235.019,151.678,235.932,151.813,236.824,152.069z M191.595,128.627
			c15.543,0.738,34.656,4.066,41.996,19.695c0.234,0.345,0.371,0.94,0.517,1.55c-1.175-0.018-2.361,0.093-3.56,0.502
			c-8.997,3.492-17.421,10.551-20.123,20.05c-0.421-0.522-0.868-1.023-1.401-1.454c-2.915-2.573-5.317,2.5-7.258,4.183
			c-3.199,3.691-6.216,7.496-9.363,11.231c-6.536,7.851-14.557,16.895-17.204,26.924c-1.458-4.135-2.669-8.377-3.611-12.692
			c-0.203-4.851,0.493-9.804,1.635-14.542c1.522-6.305,4.933-11.902,7.543-17.797c3.98-9.45,8.713-24.343,5.79-34.398
			c-0.425-1.04-0.941-2.191-1.788-2.963C186.517,128.309,188.697,128.242,191.595,128.627z M171.087,162.049
			c2.094-8.563,3.992-17.269,7.465-25.402c1.383-3.533,2.764-5.795,4.77-7.044c0.087,0.286,0.19,0.567,0.367,0.815
			c4.553,6.795,0.494,20.74-1.753,28.234c-2.091,6.499-5.532,12.455-8.223,18.715c-2.007,5.063-3.165,10.551-3.142,16.012
			C168.883,183.014,168.85,172.373,171.087,162.049z M105.855,181.594c-0.118-6.45-0.279-12.9-0.32-19.352
			c0.291-4.559-1.973-10.204,3.812-11.994c8.222-2.638,17.173-2.692,25.732-1.63c9.282,1.586,17.86,5.956,25.299,11.718
			c2.1,1.718,4.287,3.752,6.172,5.782c0.5,0.403,1.043,1.548,1.774,1.664c-0.806,6.273-0.866,12.637-0.312,18.931
			c0.584,8.758,2.467,17.457,7.067,25.004c-0.531,2.139-0.79,4.325-0.758,6.551c-2.874-9.999-7.249-20.262-16.17-26.294
			c-6.446-3.958-19.274-10.933-26.625-7.079c-0.963,0.728-1.125,1.977-0.922,3.09c0.286,1.991,0.771,3.952,1.215,5.912
			c4.407,17.776,5.127,36.501,11.714,53.697c6.789,15.809,19.13,31.18,35.646,36.875c-2.659-0.64-5.299-1.35-7.878-2.27
			c-8.028-3.198-15.813-7.119-23.269-11.601c-7.546-6.025-14.771-12.607-20.28-20.626c-6.963-9.825-11.889-20.986-15.95-32.289
			C108.017,206.055,106.294,193.814,105.855,181.594z M106.849,233.063c-3.508-5.266-7.64-10.127-10.879-15.553
			c5.156-1.323,10.532,1.785,15.012,4.17c0.169,0.097,0.358,0.087,0.541,0.075c2.709,7.342,6.074,14.453,9.812,21.312
			c4.48,7.909,10.268,15.086,16.977,21.219c-4.285-2.976-8.451-6.111-12.444-9.418C118.889,248.197,112.363,241.023,106.849,233.063
			z M54.516,291.854c-5.208-2.678-5.34-3.754-2.125-8.563c13.88-19.513,45.353-31.276,68.828-30.426
			c0.059,0.001,0.086-0.045,0.14-0.054c1.03,1.038,2.014,2.117,3.085,3.118c6.707,5.956,14.326,10.82,21.879,15.622
			c12.64,7.229,26.029,15.224,41.035,15.168c0.307-0.002,0.61,0.008,0.929,0.02c1.135,1.09,2.29,2.154,3.524,3.17
			c-1.082,0.077-2.195,0.175-3.252,0.201c-6.307,0.411-12.552,0.15-18.879,0.051c2.718,0.75,5.749,1.19,8.629,1.387
			c4.643,0.424,9.21-0.595,13.73-1.461c1.685,1.375,3.428,2.689,5.261,3.919c-4.17,1.299-8.323,2.676-12.552,3.771
			c-5.036,1.104-10.367,1.826-15.387,2.766c9.846,0.965,19.43-1.996,28.112-6.427c0.546,0.365,1.114,0.702,1.671,1.053
			c-0.364,0.128-0.729,0.256-1.093,0.385c-10.801,3.627-21.264,9.09-30.432,16.152c-6.154,3.363-12.361,6.675-19.261,8.126
			c-20.115,4.357-41.259-0.73-59.497-9.524C77.242,304.57,66.413,297.097,54.516,291.854z M162.096,316.33
			c-4.852,4.362-9.215,9.221-12.932,14.539c1.774-3.149,2.6-6.93,3.064-10.427C155.638,319.403,158.945,318.042,162.096,316.33z
			 M86.67,316.083c5.125,2.945,11.254,4.828,17.216,5.36c1.063,0.074,2.262,0.176,3.262,0.121
			c-6.864-1.435-14.037-2.597-20.422-5.548c0.998-1.183,2.087-2.283,3.186-3.37c0.893,0.427,1.757,0.907,2.663,1.31
			c10.103,4.238,20.791,7.355,31.696,8.612c-2.511,1.171-4.993,2.399-7.448,3.681c-7.102,0.835-14.479,0.491-21.466-1.438
			c-4.266-1.115-8.594-2.038-12.977-2.543c0.961,0.425,2.143,0.829,3.184,1.254c6.813,2.493,14.037,4.081,21.301,4.25
			c3.083,0.122,6.12-0.442,9.122-1.076c-3.759,1.989-7.467,4.074-11.072,6.33c-3.586,0.397-7.314,0.727-10.959,0.426
			c-5.427-0.39-10.964-1.902-16.347-2.214C79.832,325.76,82.877,320.597,86.67,316.083z M67.162,355.274
			c0.161,0.004,0.33,0.005,0.478,0.014c2.609,0.042,5.214-0.454,7.668-1.324c-0.182-0.038-0.519,0.11-0.762,0.133
			c-2.394,0.489-4.818,0.8-7.26,0.958c2.274-4.176,4.202-8.603,5.988-13.062c1.172,0.142,2.541,0.164,3.749,0.243
			c1.933,0.101,3.874,0.078,5.809-0.016c-3.067-0.441-6.377-0.32-9.532-0.292c1.025-2.56,2.029-5.097,3.043-7.599
			c3.305,0.588,6.546,1.614,9.924,1.77c1.078,0.053,2.29,0.191,3.301,0.168c-4.378-0.597-8.875-1.586-13.208-1.979
			c0.398-0.983,0.791-1.98,1.2-2.942c0.013-0.032,0.03-0.061,0.043-0.093c5.616,1.573,11.284,3.216,17.169,3.228
			c3.334,0.046,6.606-0.647,9.869-1.282c-2.253,1.416-4.475,2.881-6.658,4.404c-2.992,2.077-5.904,4.269-8.792,6.494
			c-1.053,0.193-2.131,0.388-3.18,0.455c-4.215,0.275-8.444-0.071-12.664-0.082c1.803,0.384,3.838,0.665,5.742,0.82
			c3.306,0.29,6.624-0.174,9.835-0.988c-2.174,1.678-4.337,3.372-6.486,5.085c-3.361,1.066-8.153,2.073-9.955,2.114
			c3.112,0.193,6.343-0.284,9.198-1.513c-8.096,6.46-16.154,12.971-24.912,18.469C61.117,364.805,64.425,360.256,67.162,355.274z
			 M114.227,369.27c-1.871-0.519-3.402-1.988-5.25-2.594c-0.965-0.148-1.851,0.34-2.578,0.93c-3.828,3.386-7.802,4.551-11.973,4.695
			c0.123-2.387,1.27-4.728,2.082-7.006c2.13-5.366,4.353-10.691,6.313-16.121c-4.703,6.665-7.825,14.943-8.405,23.127
			c-3.828,0.13-7.821-0.595-12.04-1.335c-0.59-0.088-1.188-0.176-1.782-0.265c2.247-5.626,5.601-10.829,7.983-16.439
			c-3.967,4.632-6.663,10.449-8.074,16.426c-3.377-0.505-6.809-0.988-10.247-1.25c1.592-3.948,3.603-7.981,5.821-11.716
			c-2.965,3.269-4.733,7.457-5.895,11.711c-5.905-0.444-11.809-0.192-17.4,1.998c0.671-0.413,1.222-0.931,1.851-1.381
			c10.009-5.1,18.981-11.956,27.893-18.898c-1.424,1.673-2.799,3.397-3.998,5.201c-2.351,3.492-3.792,7.464-5.109,11.434
			c3.239-6.004,6.576-12.173,10.606-17.801c4.072-3.17,8.166-6.3,12.354-9.265c-2.012,2.178-3.762,4.68-5.033,7.317
			c1.78-2.862,4.022-5.566,6.27-8.202c0.258-0.179,0.508-0.371,0.767-0.549c2.087-1.476,4.224-2.877,6.378-4.249
			c-8.304,10.238-16.034,21.364-17.766,34.73c1.804-4.743,3.229-9.879,5.445-14.539c3.475-7.393,8.317-14.01,13.033-20.665
			c2.393-1.507,4.828-2.945,7.294-4.33c-3.185,4.867-6.084,9.888-8.523,15.177c3.057-4.911,6.371-10.079,8.869-15.382
			c4.669-2.607,9.471-4.975,14.353-7.168c0.63,0.051,1.258,0.125,1.889,0.162c2.233,0.128,4.477,0.123,6.719,0.043
			c-0.292,0.824-0.6,1.765-0.954,2.6c-5.373,14.792-15.408,28.35-16.701,44.353C117.01,369.867,115.608,369.648,114.227,369.27z
			 M137.771,366.543c-3.344,1.406-6.789,2.484-10.251,3.098c1.084-7.592,4.391-14.759,7.093-21.902
			c-4.089,6.514-6.869,14.139-7.188,21.92c-2.992,0.523-5.989,0.675-8.943,0.365c1.627-8.627,5.691-16.79,9.221-24.831
			c2.928-6.336,6.382-12.521,7.852-19.41c0.215-0.902,0.41-1.806,0.564-2.719c5.416-0.196,10.805-1.017,15.977-2.578
			c-0.947,3.761-2.04,7.524-3.466,11.145c-2.979,4.372-5.541,9.03-7.544,13.985c-1.598,4.184-2.516,8.668-3.359,13.066
			C137.113,361.475,136.966,364.329,137.771,366.543z M44.602,452.735c2.284-2.214,3.967-4.225,5.297-6.176
			c1.268,0.248,2.64,0.409,3.928,0.457c5.55,0.168,11.048-0.844,16.281-2.656C61.999,448.202,53.43,451.082,44.602,452.735z
			 M86.622,434.676c-9.662,2.905-21.009,1.867-30.72,0.032c3.322,1.497,7.184,2.224,10.863,2.57
			c6.047,0.437,13.144,0.101,18.892-1.888c-0.355,0.256-0.698,0.528-1.055,0.781c-2.323,1.54-4.719,2.974-7.15,4.349
			c-2.41,0.913-4.829,1.805-7.23,2.741c-6.394,2.37-13.399,3.899-20.257,3.21c4.192-6.195,4.564-11.736,7.149-20.78
			c0.747-2.091,1.915-4.02,3.322-5.759c7.933,1.731,15.886,3.977,24.08,4.078c7.731,0.439,15.076-1.919,22.077-4.994
			C100.066,424.403,93.467,429.701,86.622,434.676z M125.936,403.329c-6.98,0.824-13.657,3.593-20.435,5.489
			c-10.744,2.998-21.905,5.517-33.062,3.242c2.39,0.73,7.337,1.413,10.656,1.575c14.804,0.146,28.866-5.39,42.659-10.163
			c-2.794,2.182-5.567,4.377-8.305,6.602c-0.134,0.049-0.269,0.095-0.403,0.144c-11.168,4.41-23.122,6.813-34.984,7.789
			c11.763-0.231,23.685-2.618,34.524-7.238c-0.296,0.242-0.599,0.477-0.893,0.72c-2.475,2.046-4.945,4.101-7.419,6.149
			c-0.378,0.107-0.759,0.219-1.128,0.314c-4.117,1.021-8.032,2.659-12.141,3.692c-9.646,2.4-19.678,0.678-29.322-0.905
			c-1.7-0.25-3.545-0.704-5.229-0.831c1.688-2.081,3.736-3.876,6.044-5.189c1.582-0.984,3.769-0.781,5.144-2.043
			c0.742-1.051,0.398-2.391,0.711-3.59c0.485-2.461,1.656-4.609,3.16-6.664c0.886-1.077,1.859-2.036,2.871-2.94
			c5.241,0.999,10.52,2.086,15.883,2.19l-0.047-0.004c11.189,0.344,22.05-3.032,32.727-5.976c5.693-1.883,11.312-4.053,16.711-6.674
			C137.924,393.974,131.922,398.655,125.936,403.329z M143.812,388.884c-2.694,0.928-5.543,1.894-8.295,2.783
			c-5.914,2.217-11.929,4.121-18.082,5.547c-6.793,1.746-13.579,3.525-20.645,3.711c-6.128,0.413-12.296-0.837-18.315-1.525
			c1.758-1.557,3.679-2.885,5.739-4.002c2.36,0.818,5.125,1.085,7.648,1.19c3.031,0.048,6.063-0.191,9.082-0.453
			c-5.41-0.17-11.164,0.363-16.556-0.826c9.34-5.001,21.24-6.069,31.331-7.742c1.318-0.214,2.624-0.51,3.939-0.749
			c0.028,0.003,0.061,0.004,0.089,0.007c11.655,0.781,23.72-1.318,33.882-7.214C150.506,382.85,147.222,385.93,143.812,388.884z
			 M154.166,379.045c-0.202,0.09-0.406,0.187-0.602,0.264c-7.739,3.447-15.908,6.12-24.383,6.934
			c-2.813,0.293-5.654,0.385-8.485,0.378c5.683-1.065,11.342-2.295,16.925-3.855c8.992-2.277,17.539-6.164,24.262-12.684
			C159.498,373.253,156.879,376.196,154.166,379.045z M159.708,416.413c0.742-3.832,2.422-7.461,4.968-10.457
			c0.918-1.231,2.684-2.121,3.41-3.562c0.308-0.777-0.031-1.598-0.402-2.293c-0.006-0.012-0.011-0.025-0.018-0.037
			c3.079-2.095,6.539-4.233,9.509-6.451c-3.341,1.875-6.631,3.902-9.514,6.441c-0.729-1.38-1.407-2.81-1.743-4.352
			c-1.304-9.703,3.773-18.407,9.199-26.478c4.614-0.104,9.218-0.498,13.748-1.286c-2.135,1.681-4.396,3.52-6.719,4.927
			c-4.669,2.984-9.84,5.378-13.629,9.539c4.473-2.645,9.401-5.021,13.621-8.223c2.549-1.891,4.799-4.171,7.125-6.322
			c0.955-0.171,1.908-0.35,2.855-0.557c-1.166,4.398-2.556,8.738-4.076,13.041c-4.173,3.482-8.12,7.231-12.387,10.596
			c-2.793,2.28-5.956,4.087-8.731,6.394c7.391-4.442,14.955-9.434,20.76-15.964c-1.988,5.553-4.16,11.053-6.297,16.553
			c-5.158,5.472-11.865,9.2-17.391,14.285c5.675-4.402,12.394-8.168,17.159-13.68c-0.255,0.658-0.506,1.317-0.76,1.976
			c-3.182,3.893-7.122,7.325-10.927,10.688c-4.03,3.13-7.77,7.018-9.639,11.834C159.456,420.847,159.329,418.646,159.708,416.413z
			 M164.157,453.686c0.539-5.778-0.156-11.577-1.132-17.293c2.158-2.746,4.96-5.172,7.212-7.91
			c-2.591,2.247-5.344,4.834-7.225,7.836c-0.138-0.806-0.264-1.615-0.411-2.417c-0.295-1.304-0.66-2.609-1.032-3.918
			c1.832-1.764,3.931-3.55,5.778-5.39c-2.048,1.51-4.159,3.314-5.783,5.375c-0.648-2.273-1.321-4.557-1.723-6.866
			c4.523-9.172,16.185-12.622,20.392-22.176c-0.946,2.464-1.881,4.929-2.771,7.403c-5.567,14.696-10.185,29.854-13.272,45.285
			C164.181,453.639,164.167,453.662,164.157,453.686z M180.939,433.885c-1.21,0.755-2.432,1.501-3.63,2.278
			c-0.975,0.685-1.831,1.508-2.717,2.296c0.14-3.9-0.891-7.998-1.103-11.949c-0.181,1.827-0.204,3.902,0.023,5.797
			c0.239,2.066,0.999,4.094,1.053,6.174c-4.467,3.982-7.851,9.112-10.139,14.629c4.319-15.851,9.526-31.683,15.541-47.082
			C178.735,415.198,181.393,424.618,180.939,433.885z M206.122,407.948c-1.738,5.004-4.629,9.039-10.516,7.914
			c-1.59,0.273-1.922,2.191-2.453,3.445c-0.785,2.375-1.637,4.555-3.074,6.668c-1.317,1.987-3.017,3.533-4.846,4.936
			c0.753-4.467,0.099-9.481-1.174-13.755c0.462,4.577,1.439,9.212,1.104,13.812c-1.297,0.99-2.645,1.923-4.046,2.8
			c1.389-5.176,0.806-10.705,0-15.982c-0.381-4.439-0.855-8.978-0.51-13.447c2.239-5.962,4.61-11.904,6.857-17.888
			c-0.077,10.583,6.115,18.673,7.62,29.419c-0.007,0.005-0.007,0.016,0.004,0.022c0.002,0.001,0.004,0.002,0.006,0.002
			c-0.087-5.77-2.107-11.355-3.861-16.81c-1.476-4.982-2.452-10.171-2.76-15.387c1.774-4.841,3.378-9.734,4.774-14.684
			c0.017,0.49,0.021,0.981,0.065,1.468c1.389,13.94,10.508,25.994,10.836,40.117c1.307-7.348-1.757-14.664-4.559-21.375
			c-2.615-5.669-4.668-11.562-5.895-17.695c-0.193-0.868-0.296-1.802-0.399-2.682c0.183-0.652,0.394-1.296,0.568-1.951
			c4.398-1.073,8.695-2.547,12.822-4.53c-0.567,4.507-0.769,9.066-0.669,13.607C206.532,386.593,209.399,397.479,206.122,407.948z
			 M217.511,353.389c-12.566,10.742-29.594,14.375-45.805,14.109c-5.48-0.082-10.973-0.254-16.438,0.297
			c-1.219-0.027-2.906,0.215-4.73,0.457c-4.133,0.543-8.98,1.09-10.688-1.437c-2.27-4.281,1.047-14.016,2.289-18.77
			c7.715-21.836,27.965-39.176,48.922-48.023c3.275-1.355,6.625-2.52,9.984-3.655c5.756,3.4,11.952,6.059,18.145,7.932
			c-1.658,1.128-3.558,2.026-5.085,3.391c1.787-0.676,3.847-2.062,5.139-3.375c1.845,0.557,3.67,1.04,5.494,1.447
			c-5.551,4.158-12.06,7.269-18.267,10.55c7.089-1.384,13.374-5.299,18.335-10.535c1.372,0.305,2.754,0.648,4.102,0.865
			c2.682,0.404,5.376,0.446,8.051,0.227c-4.065,5.077-8.935,9.574-13.867,13.841c6.127-2.593,11.213-7.93,14.071-13.849
			c2.193-0.191,4.36-0.61,6.504-1.155C239.791,323.672,231.281,340.975,217.511,353.389z M222.292,351.075
			c11.856-12.143,20.821-30.256,22.348-45.616c0.071-0.02,0.143-0.035,0.215-0.055c0.003,0.025,0.004,0.05,0.007,0.076
			c0.358,3.143,1.034,6.205,1.955,9.193c-0.667,1.33-1.332,2.704-1.932,4.051c0.76-1.169,1.418-2.507,1.996-3.869
			c0.619,1.982,1.372,3.92,2.187,5.836c-3.199,6.566-8.553,11.93-13.106,17.599c-5.057,6.26-9.391,13.49-10.551,21.553
			C224.264,356.957,223.228,354.03,222.292,351.075z M228.736,367.612c-1.139-2.43-2.179-4.931-3.186-7.446
			c2.685-6.212,5.622-12.594,9.63-18.163c4.947-6.739,11.051-12.927,14.116-20.787c2.004,4.609,4.485,9.033,7.199,13.276
			c-3.015,9.279-9.801,16.568-15.521,24.281c-3.49,4.896-6.255,10.408-7.883,16.203c0.92-2.768,2.638-5.419,4.231-7.941
			c2.226-3.799,4.699-7.441,7.566-10.793c5.019-6.433,11.294-13.014,11.765-21.499c1.036,1.611,2.09,3.206,3.169,4.766
			c5.442,7.938,11.933,15.295,19.603,21.116c-3.498,6.208-7.918,11.948-12.094,17.675c-5.741,7.836-13.829,16.114-13.356,26.452
			C243.4,393.747,234.915,379.948,228.736,367.612z M254.078,404.859c0.678-3.685,2.499-7.15,4.21-10.519
			c3.48-6.941,8.926-12.594,13.324-18.953c3.086-4.484,6.425-9.028,8.886-13.942c2.473,1.803,5.07,3.439,7.791,4.885
			c-2.834,9.816-11.086,16.737-16.971,24.778c7.911-6.189,15.631-14.314,17.154-24.673c0.073,0.038,0.14,0.084,0.213,0.122
			c1.913,1.092,3.909,2.017,5.904,2.942c-0.699,1.891-1.393,3.838-2.194,5.688c-2.318,5.907-5.34,11.502-9.645,16.238
			c-6.529,7.217-14.128,14.329-16.039,24.276C262.214,412.624,258.005,408.935,254.078,404.859z M336.436,434.707
			c1.201-4.525,3.322-8.757,4.855-13.174c-2.025,4.099-4.149,8.527-4.9,13.157c-4.684-1.618-9.536-2.745-14.546-3.121
			c-3.509-0.313-6.366-0.45-8.882-0.68c2.805-5.634,6.663-10.856,10.722-15.719c2.701-3.48,4.746-7.409,6.914-11.23
			c-2.699,3.69-5.287,7.757-8.191,11.395c-4.017,4.617-7.182,9.887-9.502,15.549c-6.678-0.615-10.879-1.921-17.948-9.123
			c-2.5-1.703-4.238-0.742-6.484,0.215c-2.125,0.906-4.707,1.812-8.82,0.465c-4.533-1.623-8.834-3.928-12.914-6.717
			c6.255-17.215,25.023-23.995,28.068-44.555c0.079-0.488,0.115-0.982,0.172-1.474c1.953,0.893,3.948,1.674,5.965,2.414
			c-0.043,0.147-0.05,0.364-0.107,0.517c-0.882,3.855-2.06,7.665-3.773,11.235c-2.368,4.281-5.373,8.127-8.058,12.246
			c3.027-3.446,6.023-7.285,8.308-11.371c1.941-3.862,3.004-8.171,3.633-12.433c0.007-0.062,0.014-0.122,0.02-0.185
			c4.008,1.469,8.087,2.747,12.262,3.653c-0.48,2.975-1.034,5.935-1.997,8.793c-1.371,3.867-3.563,7.617-5.898,11.035
			c-4.871,7.121-11.258,13.863-13.043,22.551c-0.009,0.035,0.032,0.104,0.049,0.104c0.006,0,0.009-0.009,0.006-0.03
			c-0.004,0-0.008-0.004-0.012-0.008c0-0.002,0-0.003,0-0.004c0-0.004-0.004-0.008-0.004-0.008
			c1.024-4.289,4.387-7.687,6.695-11.426c6.826-9.136,15.62-18.862,15.249-30.828c2.515,0.518,5.042,0.979,7.582,1.31
			c4.282,0.327,8.534,0.848,12.768,1.475c-0.046,0.61-0.078,1.244-0.182,1.827c-1.038,9.471-5.914,18.152-12.094,25.25
			c-6.391,6.895-13.37,13.847-15.89,23.211c3.282-5.024,6.514-10.356,10.492-14.973c9.085-9.474,18.86-20.941,17.766-34.933
			c-0.001-0.122,0.004-0.245,0.003-0.368c1.006,0.15,2.013,0.289,3.015,0.457c0.28,0.477,0.541,0.964,0.816,1.444
			c0.24,5.024-0.018,10.259-1.772,14.962c1.983-4.137,3.525-9.329,2.328-13.976c2.416,4.301,4.627,8.716,6.641,13.218
			c-0.01,0.069-0.021,0.138-0.031,0.208c-0.181-0.197-0.359-0.402-0.558-0.583c-0.012-0.008-0.027,0.008-0.016,0.02
			c0.09,0.094,0.172,0.199,0.254,0.301c0.096,0.133,0.203,0.261,0.3,0.393c-1.139,7.192-4.557,13.823-7.699,20.328
			c-2.799,5.529-5.707,11.201-5.785,17.543c3.686-12.668,13.113-24.116,13.695-37.594c0.087,0.117,0.178,0.231,0.266,0.348
			c0.758,1.722,1.499,3.447,2.203,5.188c0.65,6.403,0.092,12.896-1.105,19.204c-1.241,5.78-3.37,11.34-4.241,17.204
			C340.879,436.392,338.683,435.485,336.436,434.707z M345.913,395.255c0-0.009,0-0.018,0.001-0.027
			c0.007,0.016,0.014,0.032,0.021,0.047C345.927,395.269,345.919,395.263,345.913,395.255z M355.322,444.817
			c1.354-3.785,2.012-8.002,1.689-11.958c-0.607,3.961-0.813,8.043-1.733,11.927c-3.836-2.842-7.922-5.316-12.214-7.356
			c5.241-10.871,7.795-23.401,5.701-35.437c0.593,1.491,1.204,2.977,1.759,4.478c1.45,3.942,2.827,7.972,4.126,12.033
			c0.085,5.871-0.988,11.755-2.068,17.5c2.179-5.22,2.754-11.298,2.235-16.941c1.193,3.755,2.329,7.533,3.368,11.294
			c0.505,1.759,0.982,3.533,1.464,5.304c-0.036,1.241-0.213,2.512-0.279,3.705c-0.254,2.563-0.263,5.13-0.539,7.703
			c0.96-2.865,1.483-6.402,1.292-9.705c1.597,5.83,3.369,11.606,6.056,17.027C362.864,450.908,359.212,447.703,355.322,444.817z
			 M367.151,413.287c-2.807-0.802-5.445-2.253-8.123-3.408c2.432,1.519,5.195,2.983,8.113,3.575
			c-0.401,6.826-0.884,13.648-1.133,20.478c-2.417-1.674-5.063-5.595-7.131-8.147c1.7,3.025,3.913,6.435,7.131,8.157
			c-0.047,1.287-0.116,2.574-0.142,3.862c-0.207,5.648-0.535,11.297,0.609,16.879c-0.021-0.023-0.045-0.043-0.067-0.066
			c-4.887-12.316-6.871-25.763-11.04-38.385c-1.65-5.465-3.6-10.871-5.745-16.202c4.757,5.253,10.554,9.538,17.638,11.023
			C367.221,411.797,367.194,412.543,367.151,413.287z M367.957,396.017c-3.191-0.965-6.724-1.813-10.006-2.292
			c3.173,1.363,6.637,1.764,10.002,2.367c-0.146,2.901-0.31,5.802-0.393,8.697c-0.072,2.084-0.186,4.166-0.298,6.249
			c-6.601-3.406-12.899-7.77-18.391-12.926c-0.601-1.446-1.25-2.868-1.89-4.297c5.205,3.832,11.376,6.661,17.788,7.863
			c-6.168-1.815-12.055-5.035-17.844-7.984c-1.725-3.844-3.606-7.61-5.625-11.301c6.846,7.105,17.451,8.584,26.794,10.575
			C368.054,393.983,368.008,395,367.957,396.017z M367.982,382.186c0.106,1.296,0.123,2.595,0.154,3.893
			c-2.676-0.617-5.441-1.699-8.149-2.492c2.411,1.414,5.311,2.224,8.15,2.507c0.053,2.231,0.044,4.463-0.039,6.696
			c-8.527-4.393-19.557-4.101-26.973-10.721c-0.465-0.846-0.902-1.709-1.384-2.545c5.768,1.048,11.474,2.42,17.089,4.202
			c0.218,0.026,0.431,0.038,0.638,0.038c5.14,0,6.727-7.697,7.908-11.953C366.539,375.19,367.455,378.664,367.982,382.186z
			 M361.478,348.014c3.066,8.41,4.293,17.746,1.375,26.371c-0.969,2.508-1.672,5.738-4.082,7.301
			c-2.328,0.809-4.746-0.867-7.047-1.289c-4.234-1.305-8.582-2.219-12.961-2.863c-7.32-1.309-14.773-1.524-22.094-2.801
			c-11.242-2.113-22.184-6.191-31.844-12.402c-10.16-6.266-18.098-15.531-24.727-25.34c-5.726-8.203-10.301-17.07-13.34-26.641
			c-0.631-1.605-1.104-3.333-1.507-5.049c2.014-0.591,3.982-1.333,5.911-2.179c0.041,0.107,0.09,0.216,0.116,0.314
			c3.937,10.662,11.873,19.833,21.856,25.262c-8.437-7.329-16.811-15.456-21.915-25.602c1.88-0.827,3.713-1.753,5.482-2.777
			c0.505,0.532,1.13,1.031,1.718,1.452c-0.458-0.498-1.082-0.989-1.663-1.483c1.126-0.654,2.219-1.344,3.29-2.062
			c0.009,0.005,0.017,0.008,0.026,0.013c4.565,2.891,9.708,4.879,15.02,5.93c0.975,0.165,2.062,0.397,2.996,0.449
			c-5.607-2.152-11.609-3.289-17-5.918c-0.329-0.138-0.699-0.373-1.024-0.485c0.356-0.239,0.73-0.458,1.08-0.703
			c2.146-1.323,4.119-2.883,5.932-4.598c0.905,0.809,3.526,0.736,5.68,0.646c1.152-0.047,2.164-0.094,2.687,0
			c9.43,0.234,18.938-0.145,28.273,1.551c19.305,3.418,35.715,16.211,47.043,31.82C355.162,333.475,358.271,340.834,361.478,348.014
			z M365.245,338.264c-2.156-3.943-4.218-8.179-7.223-11.632c-2.928-3.569-6.557-6.4-9.992-9.461
			c-0.065-0.071-0.368-0.277-0.176-0.102c6.896,6.095,11.726,13.9,17.238,21.159c-2.409-0.543-4.765-1.135-7.026-1.71
			c-4.394-9.601-11.026-17.932-18.846-25.008c-3.194-3.01-6.615-5.624-10.186-7.934c3.24,1.138,6.59,1.915,10.013,2.329
			c6.679,3.723,13.099,8.331,17.949,14.273c-4.287-6.134-10.626-11.758-17.833-14.261c1.227,0.146,2.452,0.313,3.689,0.371
			c0.89,0.019,1.785,0.025,2.679,0.033c0.493,0.312,1.101,0.617,1.594,0.978c6.228,4.654,12.237,9.591,16.969,15.863
			c4.122,5.369,6.997,11.636,11.431,16.774C372.109,339.641,368.64,339.026,365.245,338.264z M394.902,333.448
			c-0.463,1.086-1.206,2-2.071,2.79c-4.742-6.797-7.379-15.413-13.22-21.444c5.442,6.506,6.675,15.704,13.204,21.459
			c-0.628,0.57-1.312,1.084-2.037,1.512c-4.454,2.25-9.718,2.639-15.147,2.179c-3.027-4.245-4.947-9.327-7.77-13.753
			c-4.962-7.686-11.308-15.034-19.726-18.977c-0.793-0.358-1.62-0.626-2.446-0.891c6.751,0.059,13.584-0.231,20.225-1.461
			c2.401,1.564,4.469,3.603,6.532,5.582c3.017,2.918,5.841,6.079,7.703,9.875c-2.729-6.321-7.726-12.459-14.058-15.487
			c2.916-0.547,5.797-1.262,8.612-2.231c0.028-0.011,0.056-0.023,0.084-0.034c5.9,3.799,10.277,9.686,13.641,15.765
			c2.428,4.498,4.375,9.439,7.906,13.268C395.6,331.736,395.143,332.448,394.902,333.448z M418.977,332.041
			c-1.289,0.407-2.634,0.794-3.998,1.149c-4.007-5.469-7.313-11.756-12.395-16.449c3.921,5.514,7.89,11.291,12.37,16.456
			c-2.98,0.775-6.075,1.313-9.09,1.196c-2.994-5.059-5.663-10.839-10.133-14.799c4.305,4.362,5.983,10.392,10.041,14.799
			c-2.863-0.125-5.643-0.833-8.15-2.544c-0.458-0.253-0.832-0.315-1.164-0.289c-4.929-10.971-10.246-23.146-21.511-29.022
			c-0.013-0.007-0.026-0.014-0.039-0.021c1.62-0.647,3.243-1.312,4.859-2c0.199,0.039,0.399,0.068,0.598,0.106
			c7.656,4.476,14.165,10.87,19.757,17.704c-4.938-7.095-11.145-14.548-19.484-17.656c1.875,0.357,3.749,0.715,5.638,0.997
			c0.692,0.1,1.389,0.168,2.082,0.259c0.194,0.118,0.389,0.237,0.583,0.353c7.122,4.27,13.656,9.579,18.633,16.285
			c3.275,4.502,6.241,9.226,9.75,13.554c-6.716-12.246-15.323-23.516-28.141-29.941c-0.12-0.059-0.248-0.132-0.371-0.196
			c4.451,0.572,8.919,1.027,13.386,1.508c0.287,0.17,0.579,0.341,0.837,0.52c5.083,3.516,9.804,7.618,13.942,12.23
			c3.714,3.833,6.374,8.676,9.773,12.762C424.096,330.173,421.494,331.25,418.977,332.041z M442.978,322.328
			c-0.63-1.641-1.816-3.517-3.056-4.749c1.004,1.588,2.095,3.116,3.006,4.765c-2.147,0.656-4.293,1.46-6.426,2.348
			c-3.508-6.181-8.512-12.137-14.865-15.562c5.86,4.225,10.767,9.635,14.848,15.569c-3.287,1.368-6.542,2.9-9.721,4.3
			c-2.021-2.633-3.489-5.916-5.382-8.72c-4.692-6.727-10.418-13.446-18.112-16.664c3.825,0.423,7.645,0.89,11.439,1.586
			c4.276,0.756,8.521,1.795,12.707,3.052c5.207,3.951,9.709,8.806,12.963,14.501c-2.31-5.924-7.076-10.806-12.357-14.315
			c9.462,2.898,18.564,7.055,26.803,12.443C450.93,320.459,446.955,321.117,442.978,322.328z M455.056,320.9
			c-5.243-4.3-11.305-7.599-17.639-10.318c0.805,0.136,1.616,0.252,2.424,0.305c1.189,0.053,2.463-0.041,3.628-0.272
			c3.886,3.525,8.172,6.588,11.886,10.309C455.256,320.911,455.156,320.912,455.056,320.9z"/>
		<path style="fill:#E8DFD0;" d="M342.877,306.291c-0.008-0.001-0.017-0.002-0.025-0.003c-0.001,0-0.001,0-0.002,0
			C342.85,306.288,342.877,306.291,342.877,306.291z"/>
		<path style="fill:#E8DFD0;" d="M342.937,111.421c0.865,4.491,1.71,8.992,2.355,13.523
			C345.22,120.478,344.311,115.681,342.937,111.421z"/>
		<path style="fill:#E8DFD0;" d="M331.45,98.001c1.814,8.146,5.589,16.048,7.187,24.359
			C338.214,113.848,333.831,106.09,331.45,98.001z"/>
		<path style="fill:#E8DFD0;" d="M362.344,83.986c1.317-1.811,2.708-3.616,3.381-5.797c-1.12,1.842-2.309,3.899-3.402,5.805
			C362.328,84.006,362.347,83.998,362.344,83.986z"/>
		<path style="fill:#E8DFD0;" d="M358.268,118.851c-3.464,3.192-7.399,6.278-11.168,9.258
			C351.37,125.973,355.048,122.38,358.268,118.851z"/>
		<path style="fill:#E8DFD0;" d="M386.645,112.611c1.929-4.52,3.482-9.483,4.32-14.406
			C389.634,102.927,387.964,107.802,386.645,112.611z"/>
		<path style="fill:#E8DFD0;" d="M406.193,75.909c-0.412,7.168-2.26,14.408-3.965,21.426
			C405.188,90.695,406.339,83.212,406.193,75.909z"/>
		<path style="fill:#E8DFD0;" d="M418.499,79.441c-0.619,2.051-1.169,4.124-1.742,6.187
			C417.619,83.784,418.22,81.453,418.499,79.441z"/>
		<path style="fill:#E8DFD0;" d="M358.272,169.137c-3.062,1.177-6.106,3.101-8.774,5.137
			C352.444,172.828,355.34,170.682,358.272,169.137z"/>
		<path style="fill:#E8DFD0;" d="M367.734,308.981c6.035,5.907,10.944,12.842,15.242,20.094
			C379.352,321.563,374.199,314.297,367.734,308.981z"/>
		<path style="fill:#E8DFD0;" d="M361.083,310.212c-0.026,0.003-0.129-0.158-0.133-0.082c0.231,0.234,0.465,0.465,0.691,0.703
			c4.21,4.445,8.438,8.896,12.031,13.863c3.304,4.712,6.093,9.791,9.344,14.52C377.801,328.267,370.303,318.222,361.083,310.212z"/>
		<path style="fill:#E8DFD0;" d="M438.339,306.424c-1.456,0.092-3.267,0.355-4.719,0.422
			C435.201,307.004,436.808,306.834,438.339,306.424z"/>
		<path style="fill:#E8DFD0;" d="M112.839,345.649c-2.923,6.24-5.79,13.113-5.109,20.146c0.013,0.01,0.03-0.019,0.012-0.02
			c0.01,0.002-0.002-0.006,0.001-0.002c-0.063-4.135,1.774-8.124,3.234-11.963c3.364-8.862,9.191-16.932,10.84-26.434
			c0.102-0.569,0.207-1.158,0.316-1.75c-0.298,0.557-0.548,1.326-0.867,1.945C118.335,333.494,115.762,339.684,112.839,345.649z"/>
		<path style="fill:#E8DFD0;" d="M104.495,360.692c3.813-9.088,8.041-18.45,11.778-27.535
			C111.891,342.115,106.844,350.898,104.495,360.692z"/>
		<path style="fill:#E8DFD0;" d="M86.637,353.07c-3.199,4.071-5.829,8.855-7.379,13.859C81.317,362.23,83.906,357.523,86.637,353.07
			z"/>
		<path style="fill:#E8DFD0;" d="M132.303,325.236c-2.148,5.926-5.698,11.238-7.891,17.148
			C127.5,337.042,130.688,331.223,132.303,325.236z"/>
		<path style="fill:#E8DFD0;" d="M145.703,327.615c-0.155,0.163-0.277,0.527-0.426,0.777c-3.37,6.748-6.374,13.672-9.309,20.617
			c-2.337,5.819-4.516,11.816-5.098,18.102c3.276-13.01,9.162-25.371,14.143-37.864
			C145.233,328.711,145.482,328.161,145.703,327.615z"/>
		<path style="fill:#E8DFD0;" d="M100.974,329.507c-4.884-0.56-9.742-1.365-14.465-2.777c-1.545-0.424-3.187-1.06-4.699-1.313
			c5.133,1.776,10.164,4.213,15.73,4.094C98.66,329.511,99.932,329.591,100.974,329.507z"/>
		<path style="fill:#E8DFD0;" d="M358.682,386.202c-5.496-1.3-10.986-3.742-16.512-5.332
			C347.227,383.487,352.968,385.579,358.682,386.202z"/>
		<path style="fill:#E8DFD0;" d="M352.297,421.178c-0.757,6.344-1.571,12.976-3.75,19.102
			C351.272,434.439,352.263,427.659,352.297,421.178z"/>
		<path style="fill:#E8DFD0;" d="M363.817,422.849c-2.972-2.913-5.478-6.684-8.848-9.332
			C357.204,417.176,360.477,420.134,363.817,422.849z"/>
		<path style="fill:#E8DFD0;" d="M279.836,420.572c1.164-5.773,2.412-11.989,5.508-17.156h-0.004
			C281.671,408.129,279.498,414.458,279.836,420.572z"/>
		<path style="fill:#E8DFD0;" d="M314.592,399.681c-0.197,0.118-0.376,0.497-0.57,0.715c-5.885,7.594-11.498,16.16-12.133,26.016
			c3.007-8.923,6.756-17.883,12.086-25.774C314.182,400.322,314.384,399.997,314.592,399.681z"/>
		<path style="fill:#E8DFD0;" d="M323.225,389.464c-0.978,1.985-1.91,3.99-3.02,5.91c-0.004,0.016,0.02,0.019,0.023,0.004
			C321.556,393.64,322.623,391.483,323.225,389.464z"/>
		<path style="fill:#E8DFD0;" d="M258.537,344.012c-3.481,13.564-16.184,22.118-20.707,35.172
			c5.109-12.31,17.417-20.972,20.539-34.277C258.418,344.613,258.571,344.213,258.537,344.012z"/>
		<path style="fill:#E8DFD0;" d="M243.522,375.949c-2.013,2.899-3.626,6.528-3.996,10.137
			C240.354,382.651,241.884,379.158,243.522,375.949z"/>
		<path style="fill:#E8DFD0;" d="M246.99,372.334c-0.004,0.016,0.02,0.024,0.024,0.008c4.189-6.511,9.796-12.08,13.363-19.035
			C256.184,359.703,250.7,365.551,246.99,372.334z"/>
		<path style="fill:#E8DFD0;" d="M247.201,393.926c1.986-6.059,4.652-12.178,8.332-17.508c3.68-5.525,8.145-10.677,10.41-17.008
			c0.258-0.774,0.677-1.675,0.727-2.426c-0.032,0.178-0.111,0.389-0.164,0.547C261.414,370.343,247.68,379.2,247.201,393.926z"/>
		<path style="fill:#E8DFD0;" d="M249.254,330.688c0.56-0.936,1.283-1.932,1.75-2.832c-0.538,0.635-1.085,1.27-1.631,1.906
			c-9.599,10.612-18.081,18.682-21.295,33.399c1.956-6.372,5.233-12.501,9.3-17.887
			C241.155,340.246,246.175,336.243,249.254,330.688z"/>
		<path style="fill:#E8DFD0;" d="M251.588,331.756c-0.889,1.685-2.066,3.246-2.953,4.957
			C249.715,335.268,251.024,333.478,251.588,331.756z"/>
		<path style="fill:#E8DFD0;" d="M118.84,392.529c-4.329,0.947-8.745,2.172-13.102,2.566
			C110.205,395.236,114.734,393.972,118.84,392.529z"/>
		<path style="fill:#E8DFD0;" d="M79.748,407.389c2.39,0.476,5.044,0.797,7.562,0.86c5.336,0.025,10.657-1.064,15.742-2.617
			c0.038-0.032,0.403-0.13,0.313-0.172c-2.569,0.772-5.308,1.1-7.957,1.567C90.234,407.957,84.962,407.977,79.748,407.389z"/>
		<path style="fill:#E8DFD0;" d="M64.164,432.354c3.807,0.804,7.96,0.95,11.914,1.043c4.001,0.027,8.254-0.303,12.023-1.422
			C80.241,433.453,72.116,432.839,64.164,432.354z"/>
		<path style="fill:#E8DFD0;" d="M74.185,429.48c-0.626-0.045-1.284-0.101-1.918-0.09c0.298,0.121,0.862,0.096,1.25,0.129
			C73.684,429.509,74.221,429.55,74.185,429.48z"/>
		<path style="fill:#E8DFD0;" d="M203.219,373.607c-0.005-0.006-0.008-0.015-0.013-0.021c0.004,0.007,0.007,0.014,0.011,0.021
			C203.217,373.607,203.216,373.607,203.219,373.607z"/>
		<path style="fill:#E8DFD0;" d="M203.22,373.615c-0.003-0.001-0.001,0.006,0.001,0.001c0,0,0.001,0,0.001,0.001
			c-0.002-0.003-0.003-0.007-0.005-0.01c0,0-0.001,0-0.001,0C203.218,373.609,203.218,373.612,203.22,373.615z"/>
		<path style="fill:#E8DFD0;" d="M199.898,367.071c0.716,2.229,1.79,4.625,3.307,6.514
			C202.017,371.616,201.06,369.175,199.898,367.071z"/>
		<path style="fill:#E8DFD0;" d="M166.077,391.518c2.863-3.49,7.335-5.391,10.84-8.242
			C172.851,385.135,168.644,387.689,166.077,391.518z"/>
		<path style="fill:#E8DFD0;" d="M187.936,419.886c-2.237-8.516-2.624-17.665-2.848-26.547
			C183.258,402.174,185.17,411.44,187.936,419.886z"/>
		<path style="fill:#E8DFD0;" d="M195.69,396.26c-1.693-4.432-3.067-9.192-4.438-13.801
			C192.056,387.122,193.445,391.986,195.69,396.26z"/>
		<path style="fill:#E8DFD0;" d="M201.523,383.987c2.44,4.975,5.304,9.876,6.008,15.465c-0.648-8.899-5.963-16.96-9.195-25.098
			C199.169,377.636,200.093,380.906,201.523,383.987z"/>
		<path style="fill:#E8DFD0;" d="M201.926,217.047c-0.167,2.084,0.318,4.342,0.875,6.398
			C202.581,221.387,202.089,219.175,201.926,217.047z"/>
		<path style="fill:#E8DFD0;" d="M207.43,218.268c-0.42,1.519-0.324,3.531-0.211,5.219
			C207.388,221.844,207.275,219.966,207.43,218.268z"/>
		<path style="fill:#E8DFD0;" d="M230.524,297.324c-14.181-17.519-21.422-39.997-24.18-62.215c-0.137-1.104-0.269-2.216-0.344-3.312
			c-0.084,1.407,0.088,3.022,0.179,4.498C208.179,256.269,216.614,282.57,230.524,297.324z"/>
		<path style="fill:#E8DFD0;" d="M227.877,288.928c1.327,3.547,4.129,6.67,6.852,9.348
			C232.421,295.309,229.678,292.299,227.877,288.928z"/>
		<path style="fill:#E8DFD0;" d="M225.102,297.184c1.531,2.802,4.555,4.73,7.293,6.367
			C229.964,301.585,227.034,299.762,225.102,297.184z"/>
		<path style="fill:#E8DFD0;" d="M248.273,233.783c3.969,7.028,5.036,15.185,6.945,22.934
			C254.022,248.952,252.825,240.396,248.273,233.783z"/>
		<path style="fill:#E8DFD0;" d="M251.46,260.95c0.421,4.37,0.347,8.809,0.782,13.195c0.23-8.304,0.02-16.643-3.102-24.539
			C249.976,253.097,251.014,257.172,251.46,260.95z"/>
		<path style="fill:#E8DFD0;" d="M318.985,358.32c-0.012-0.008-0.023,0.016-0.012,0.023c12.751,8.422,27.853,12.946,39.547,22.988
			c-6.038-6.116-14.091-10.136-21.817-13.867C330.685,364.639,324.879,361.396,318.985,358.32z"/>
		<path style="fill:#E8DFD0;" d="M338.697,363.676c0.331,0.363,0.953,0.736,1.43,1.024
			C339.776,364.347,339.172,363.98,338.697,363.676z"/>
		<path style="fill:#E8DFD0;" d="M345.572,354.972c5.623,6.53,11.445,13.301,14.414,21.496
			C357.728,368.173,351.751,360.804,345.572,354.972z"/>
		<path style="fill:#E8DFD0;" d="M348.34,367.586c-3.678-5.322-8.674-10.174-14-13.828
			C339.35,357.998,344.082,362.591,348.34,367.586z"/>
		<path style="fill:#E8DFD0;" d="M303.456,354.678c-0.723-0.629-1.434-1.269-2.141-1.91c0.474,0.605,1.197,1.249,1.774,1.859
			c10.515,10.753,24.803,16.456,38.781,21.168c-5.987-2.856-12.65-4.787-18.648-7.855
			C316.009,364.528,309.397,359.98,303.456,354.678z"/>
		<path style="fill:#E8DFD0;" d="M263.801,296.035c-0.004,0-0.004,0-0.004,0c0.006,0.002,0.013,0.002,0.02,0.004
			c-0.008-0.003-0.016-0.004-0.023-0.007C263.796,296.033,263.799,296.035,263.801,296.035z"/>
		<path style="fill:#E8DFD0;" d="M263.817,296.039c8.372,3.035,17.724,3.742,26.558,5.379c-3.078-1.276-6.427-2.525-9.785-3.133
			C275.04,297.268,269.277,297.458,263.817,296.039z"/>
		<path style="fill:#E8DFD0;" d="M274.228,309.563c-3.164-1.903-7.138-2.806-10.117-5.078
			C266.704,307.169,270.549,308.772,274.228,309.563z"/>
		<path style="fill:#E8DFD0;" d="M263.279,312.809c0.361,0.614,1.065,1.234,1.656,1.731
			C264.507,313.973,263.806,313.375,263.279,312.809z"/>
		<path style="fill:#E8DFD0;" d="M296.07,287.9c-0.003-0.003,0.005,0.004,0.003,0.003c-0.001,0-0.001,0-0.002,0
			c0.002,0,0.002,0,0.002,0c-0.034-0.016-0.031,0.038,0.033,0.035c2.978,0.04,5.926-0.785,8.762-1.64
			c-2.86,0.354-5.85,1.359-8.793,1.605C296.072,287.901,296.071,287.9,296.07,287.9z"/>
		<path style="fill:#E8DFD0;" d="M319.646,270.31c-8.304,2.458-16.124,6.287-24.352,8.961
			C303.552,277.203,312.219,274.606,319.646,270.31z"/>
		<path style="fill:#E8DFD0;" d="M219.596,318.196c2.647-1.354,5.086-3.43,7.313-5.469
			C224.528,314.473,221.857,316.165,219.596,318.196z"/>
		<path style="fill:#E8DFD0;" d="M234.533,316.588c2.586-2.531,4.413-6.302,5.129-9.797
			C237.832,309.967,235.896,313.147,234.533,316.588z"/>
		<path style="fill:#E8DFD0;" d="M206.493,309.163c-0.545,0.052-1.271,0.449-1.84,0.699c0.557-0.09,1.253-0.491,1.836-0.695
			C206.489,309.163,206.493,309.163,206.493,309.163z"/>
		<path style="fill:#E8DFD0;" d="M179.872,294.302c2.74,0.04,5.612-0.452,8.188-1.102
			C185.349,293.481,182.437,293.542,179.872,294.302z"/>
		<path style="fill:#E8DFD0;" d="M287.982,280.484c5.173-4.583,9.268-10.698,11.043-17.352c-3.556,5.818-6.316,12.374-11.058,17.328
			C287.946,280.474,287.965,280.489,287.982,280.484z"/>
		<path style="fill:#E8DFD0;" d="M186.971,285.859c-8.061-4.138-15.314-9.977-21.953-16.242
			C169.942,277.595,178.313,282.68,186.971,285.859z"/>
		<path style="fill:#E8DFD0;" d="M183.471,281.798c-6.85-5.983-11.914-13.794-17.035-21.324
			C169.687,269.098,176.058,276.354,183.471,281.798z"/>
		<path style="fill:#E8DFD0;" d="M139.611,204.605c-1.411-5.877-2.853-12.326-6.367-17.363
			C136.243,192.672,137.544,198.797,139.611,204.605z"/>
		<path style="fill:#E8DFD0;" d="M149.173,213.027c-2.817-7.767-6.458-15.727-11.062-22.605
			C142.169,197.769,145.647,205.412,149.173,213.027z"/>
		<path style="fill:#E8DFD0;" d="M149.22,196.52c5.485,8.603,9.855,18.082,13.546,27.664
			C159.807,214.412,155.382,204.774,149.22,196.52z"/>
		<path style="fill:#E8DFD0;" d="M245.878,191.643c-0.102-2.262-0.458-4.712-0.398-7.047
			C245.072,186.841,245.417,189.361,245.878,191.643z"/>
		<path style="fill:#E8DFD0;" d="M253.332,198.8c-0.775-3.867-1.673-8.408-4.097-11.602
			C251.248,190.758,252.013,194.936,253.332,198.8z"/>
		<path style="fill:#E8DFD0;" d="M263.577,218.084c-1.556-10.008-4.211-20.438-9.683-29.137
			C258.667,197.945,261.259,208.133,263.577,218.084z"/>
		<path style="fill:#E8DFD0;" d="M240.279,189.14c-2.062,7.915-1.694,16.616,0.676,24.512
			C239.301,205.696,238.894,197.207,240.279,189.14z"/>
		<path style="fill:#E8DFD0;" d="M307.783,209.677c1.033-5.365,2.312-11.07,3.961-16.27
			C309.478,198.547,308.246,204.075,307.783,209.677z"/>
		<path style="fill:#E8DFD0;" d="M109.449,161.963c-0.982-2.576-2.262-5.287-3.301-7.934
			C106.777,156.721,108.064,159.49,109.449,161.963z"/>
		<path style="fill:#E8DFD0;" d="M108.691,155.66c1.212,2.761,3.365,5.274,5.477,7.496
			C112.426,160.715,110.314,158.266,108.691,155.66z"/>
		<path style="fill:#E8DFD0;" d="M127.99,166.012c-4.924-6.394-11.553-12.195-19.07-15.422
			C116.054,154.413,122.479,160.021,127.99,166.012z"/>
		<path style="fill:#E8DFD0;" d="M117.114,149.933c2.537,0.961,4.715,2.74,6.973,4.254
			C122.173,152.429,119.696,150.471,117.114,149.933z"/>
		<path style="fill:#E8DFD0;" d="M122.091,179.018c-1.45-2.233-3.364-4.442-5.098-6.527
			C118.371,174.747,120.286,176.981,122.091,179.018z"/>
		<path style="fill:#E8DFD0;" d="M417.886,241.963c0.405,0.047,1.02-0.138,1.469-0.16
			C418.998,241.696,418.331,241.891,417.886,241.963z"/>
		<path style="fill:#E8DFD0;" d="M402.614,252.393c6.897-1.755,13.692-4.816,19.336-9.301
			C416.038,246.966,409.359,250.005,402.614,252.393z"/>
		<path style="fill:#E8DFD0;" d="M408.853,245.499c1.015-0.166,2.195-0.645,3.223-0.957
			C411.069,244.639,409.872,245.119,408.853,245.499z"/>
		<path style="fill:#E8DFD0;" d="M390.889,262.192c9.214-2.238,19.518-4.863,26.598-11.535
			C409.86,256.775,400.033,259.168,390.889,262.192z"/>
		<path style="fill:#E8DFD0;" d="M405.059,268.373c-0.746,0.14-1.651,0.616-2.422,0.93
			C403.399,269.175,404.298,268.705,405.059,268.373z"/>
		<path style="fill:#E8DFD0;" d="M390.727,180.711c-0.014,0.001-0.029,0.005-0.043,0.006c0.015,0.001,0.031-0.003,0.046-0.002
			C390.73,180.711,390.73,180.711,390.727,180.711z"/>
		<path style="fill:#E8DFD0;" d="M377.179,184.102c4.333-1.343,8.864-3.019,13.505-3.384
			C386.085,180.51,381.387,182.205,377.179,184.102z"/>
		<path style="fill:#E8DFD0;" d="M387.327,184.266c0.717-0.199,1.571-0.701,2.293-1.012
			C388.902,183.387,388.033,183.888,387.327,184.266z"/>
		<path style="fill:#E8DFD0;" d="M392.197,185.91c-0.03,0.035-0.068,0.063-0.098,0.097c0.029-0.028,0.062-0.051,0.091-0.079
			C392.185,185.923,392.187,185.913,392.197,185.91z"/>
		<path style="fill:#E8DFD0;" d="M372.307,199.68c7.157-3.294,14.579-7.655,19.792-13.672
			C386.345,191.543,379.254,195.719,372.307,199.68z"/>
		<path style="fill:#E8DFD0;" d="M291.287,125.377c1.696-3.297,3.251-7.031,5.68-9.949
			C294.229,117.935,292.54,121.824,291.287,125.377z"/>
		<path style="fill:#E8DFD0;" d="M299.112,118.841c0.405-0.628,0.704-1.564,1.078-2.266
			C299.747,117.05,299.381,118.11,299.112,118.841z"/>
		<path style="fill:#E8DFD0;" d="M302.299,117.051c-0.053,3.507-0.296,7.084-0.551,10.582
			C302.458,124.316,302.718,120.429,302.299,117.051z"/>
		<path style="fill:#E8DFD0;" d="M286.865,123.024c-0.007,0.001-0.013,0.004-0.017,0.007c0,0,0,0,0-0.004
			c-0.024,0.034-0.04,0.073-0.064,0.107c0.031-0.031,0.052-0.076,0.083-0.107C286.866,123.026,286.865,123.025,286.865,123.024z"/>
		<path style="fill:#E8DFD0;" d="M283.208,130.985c1.074-2.568,1.952-5.502,3.577-7.85
			C284.917,125.022,283.891,128.291,283.208,130.985z"/>
		<path style="fill:#E8DFD0;" d="M188.413,130.601c1.035,1.808,2.028,3.737,3.066,5.578
			C190.797,134.306,189.663,132.14,188.413,130.601z"/>
		<path style="fill:#E8DFD0;" d="M193.656,132.45c1.836,2.011,2.81,4.725,4.206,7.065
			C196.906,137.161,195.669,133.985,193.656,132.45z"/>
		<path style="fill:#E8DFD0;" d="M193.601,132.378c-0.008,0-0.012-0.004-0.02-0.008c-0.001,0-0.003,0-0.004,0
			c0.029,0.021,0.05,0.058,0.079,0.08C193.636,132.427,193.621,132.4,193.601,132.378z"/>
		<path style="fill:#E8DFD0;" d="M206.349,171.159c-1.702,4.327-3.053,8.868-3.5,13.549
			C203.812,180.268,205.228,175.475,206.349,171.159z"/>
		<path style="fill:#E8DFD0;" d="M207.719,184.673c0.522-3.965,0.652-8.216,0.297-12.275
			C207.858,176.325,207.732,180.621,207.719,184.673z"/>
		<path style="fill:#E8DFD0;" d="M210.778,181.505c-0.092,0.445-0.055,1.109-0.09,1.629
			C210.834,182.702,210.806,182.022,210.778,181.505z"/>
		<path style="fill:#E8DFD0;" d="M60.955,290.395c0.462-0.008,1.05,0.072,1.445-0.016c-2.889-0.268-5.75-0.775-8.563-1.43
			C56.008,289.827,58.549,290.315,60.955,290.395z"/>
		<path style="fill:#E8DFD0;" d="M70.824,285.362c-5.17,0.291-10.814,0.378-15.758,2.281
			C60.079,286.335,65.626,286.251,70.824,285.362z"/>
		<path style="fill:#E8DFD0;" d="M59.239,281.465c-1.571,0.471-3.414,1.25-4.73,2.367c-0.003,0.024,0.025,0.018,0.025,0.003
			C56.004,282.912,57.68,282.255,59.239,281.465z"/>
		<path style="fill:#E8DFD0;" d="M76.069,294.037c-3.438-0.254-7.048-0.644-10.32-1.453c2.419,0.973,5.024,1.378,7.617,1.519
			c1.066,0.044,2.139,0.038,3.203-0.008c-0.083-0.074-0.348-0.024-0.504-0.062L76.069,294.037z"/>
		<path style="fill:#E8DFD0;" d="M269.237,161.908c-0.327,1.216-0.437,2.707-0.437,4.031
			C269.028,164.706,269.127,163.226,269.237,161.908z"/>
		<path style="fill:#E8DFD0;" d="M271.418,171.044c0.302-3.26,0.063-6.822-0.859-10.016
			C271.025,164.235,271.264,167.722,271.418,171.044z"/>
		<path style="fill:#E8DFD0;" d="M273.069,166.179c0.039-0.84-0.152-1.907-0.422-2.773
			C272.732,164.239,272.92,165.281,273.069,166.179z"/>
		<path style="fill:#E8DFD0;" d="M280.883,149.904c0.43,0.984,0.609,2.088,0.953,3.112
			C281.819,152.1,281.38,150.547,280.883,149.904z"/>
		<path style="fill:#E8DFD0;" d="M235.362,151.898c0,0,0-0.001,0-0.002c-0.637,1.17-0.828,2.909-0.918,4.332
			C234.861,154.901,234.896,153.264,235.362,151.898C235.362,151.898,235.362,151.898,235.362,151.898z"/>
	</g>
</g>
</svg>
