<?xml version="1.0" encoding="UTF-8"?>
<!DOCTYPE svg PUBLIC "-//W3C//DTD SVG 1.1//EN" "http://www.w3.org/Graphics/SVG/1.1/DTD/svg11.dtd">
<!-- Creator: CorelDRAW 2017 -->
<svg xmlns="http://www.w3.org/2000/svg" xml:space="preserve" version="1.1" style="shape-rendering:geometricPrecision; text-rendering:geometricPrecision; image-rendering:optimizeQuality; fill-rule:evenodd; clip-rule:evenodd"
viewBox="2500 4400 10100 3700"
 xmlns:xlink="http://www.w3.org/1999/xlink">
 <defs>
  <style type="text/css">
   <![CDATA[
    .fil0 {fill:#C8956C;fill-rule:nonzero}
   ]]>
  </style>
 </defs>
 <g id="Слой_x0020_1">
  <metadata id="CorelCorpID_0Corel-Layer"/>
  <g id="_1641299312">
   <path class="fil0" d="M2594.19 7478.1l-0.02 0 0.02 -0.04 0 0.04zm1084.11 -316.39c0,150.37 -65.76,286.44 -172.07,384.86 -105.42,97.62 -250.69,158 -410.81,158 -160.11,0 -305.38,-60.38 -410.81,-158 -34.78,-32.2 -65.21,-68.43 -90.42,-107.86l0 0.02c-10.81,-15.37 -33.9,-26 -60.66,-26 -19.76,0 -37.53,5.8 -49.82,15.03l28.83 -266.05 81.65 0 4.07 0c0,125.78 55.14,239.72 144.27,322.24 90.01,83.34 214.76,134.9 352.89,134.9 138.14,0 262.87,-51.56 352.89,-134.9 89.13,-82.52 144.27,-196.46 144.27,-322.24l85.72 0z"/>
   <path class="fil0" d="M3501.46 5843.34c0,-125.88 -50.55,-239.93 -132.27,-322.57 -82.22,-83.13 -196.05,-134.55 -322,-134.55 -125.96,0 -239.8,51.42 -322.01,134.55 -81.72,82.64 -132.26,196.69 -132.26,322.57l-80.38 0c0,-150.24 60.15,-286.19 157.38,-384.51 96.75,-97.82 230.15,-158.33 377.27,-158.33 147.12,0 280.52,60.51 377.26,158.33 30.33,30.68 57.06,65.03 79.48,102.32l0 -0.02c11.34,14.95 34.71,25.21 61.73,25.21 19.29,0 36.73,-5.24 49.25,-13.68l-29.33 270.68 -3.75 0 -77.9 0 -2.47 0z"/>
   <path class="fil0" d="M3585.29 7105.87c-0.01,-0.58 0.11,-156.76 -238.93,-357.71 -231.33,145.23 -582.02,-27.29 -582.02,-27.29 0,0 164.81,-99.66 332.66,-97.05 33.42,0.52 64.9,4.69 93.9,11.02 -36.39,-23.28 -76.06,-46.84 -119.47,-70.56 -106.46,-58.16 -192.71,-116.28 -262.58,-172.26 -241.7,-27.52 -308.23,-292.12 -261.9,-491.7 0,0 128.32,117.45 219.67,236.29 43.9,57.1 73.88,118.8 93.19,167.48 63.44,52.12 142.37,106.61 240.57,161.57 -247.42,-230.17 -69.23,-473.14 -69.23,-473.14 191.24,121.84 221.92,318.16 121.75,502.34 125.78,71.62 221.83,143.38 295.23,211.2 -28.21,-58.63 -56.9,-139.77 -47.52,-214.25 17.29,-137.22 126.84,-247.24 126.84,-247.24 0,0 166.38,266.97 -16.85,523.92 174.79,189.69 174.97,335.19 174.98,335.81l-100.29 1.57z"/>
   <path class="fil0" d="M4290.59 5933.44l0 524.76 493.97 0 0 89.23 -493.97 0 0 523.58 724.66 0 0 89.22c-271.55,0 -543.72,1.18 -813.9,1.18l0 -1191.41c0,-61.55 -50.36,-111.92 -111.92,-111.92l0 -13.87c308.6,0 617.21,0.01 925.82,0.01 0,67.05 0,134.08 0,201.14l-13.87 0c0,-61.55 -50.36,-111.92 -111.92,-111.92l-598.87 0z"/>
   <path class="fil0" d="M5566.66 6845.4l0 314.83 -89.23 0 0 -1190.23c0,-61.55 -50.36,-111.92 -111.92,-111.92l0 -13.87c155.93,0 311.86,0.01 467.79,0.01 137.71,0 262.87,56.3 353.58,147.01 90.71,90.71 147.01,215.87 147.01,353.58 0,137.71 -56.3,262.88 -147.01,353.58 -29.52,29.53 -62.71,55.39 -98.78,76.88l251.6 384.96 -106.6 0 -226.16 -346.05c-54.16,20.19 -112.67,31.22 -173.64,31.22l-266.64 0zm266.64 -911.96l-248.93 0 0 822.74 248.93 0c113.08,0 215.91,-46.3 290.49,-120.87 74.59,-74.59 120.88,-177.42 120.88,-290.5 0,-113.08 -46.29,-215.91 -120.88,-290.49 -74.58,-74.58 -177.41,-120.88 -290.49,-120.88z"/>
   <path class="fil0" d="M6934.37 5933.44l0 524.76 493.97 0 0 89.23 -493.97 0 0 523.58 724.65 0 0 89.22c-271.55,0 -543.71,1.18 -813.89,1.18l0 -1191.41c0,-61.55 -50.36,-111.92 -111.92,-111.92l0 -13.87c308.6,0 617.21,0.01 925.81,0.01 0,67.05 0,134.09 0,201.14l-13.86 0c0,-61.55 -50.36,-111.92 -111.92,-111.92l-598.87 0z"/>
   <path class="fil0" d="M8260.42 5985.77l0 1175.64 -89.24 0 0 -1191.4c0,-61.56 -50.36,-111.92 -111.92,-111.92l0 -13.87c71.97,0 143.95,0 215.92,0l741.08 1175.63 0 -1175.63 89.22 0 0 1317.19 -103.98 0 -741.08 -1175.64z"/>
   <polygon class="fil0" points="9900.94,5844.22 9900.94,7161.41 9811.72,7161.41 9811.72,5844.22 "/>
   <path class="fil0" d="M10842.02 5933.44l0 1227.97 -89.23 0 0 -1227.97 -416.54 0 0 -89.22c307.44,0 614.87,0 922.31,0l0 89.22 -416.54 0z"/>
   <polygon class="fil0" points="12036.69,6518.22 12036.69,7161.41 11947.47,7161.41 11947.47,6518.23 11467.85,5845.72 11468.93,5844.22 11578.22,5844.22 11577.15,5845.72 11992.07,6427.53 12407.01,5845.72 12405.94,5844.22 12515.23,5844.22 12516.29,5845.72 "/>
   <path class="fil0" d="M7709.5 8009.43c30.28,-7.06 64.1,-18.93 101.45,-35.58 37.37,-16.66 74.47,-36.09 111.32,-58.31 36.84,-22.2 71.68,-45.69 104.49,-70.42 32.81,-24.73 59.81,-48.71 81.02,-71.93 35.33,-36.35 51.74,-68.4 49.22,-96.16 -2.53,-27.77 -16.15,-51.49 -40.89,-71.19 -24.73,-19.67 -57.29,-35.33 -97.68,-46.94 -40.38,-11.61 -81.27,-19.44 -122.66,-23.47 -55.53,-5.04 -115.1,-4.29 -178.71,2.27 -63.6,6.56 -128.72,17.42 -195.35,32.56 -66.63,15.15 -133.76,34.08 -201.42,56.79 -67.63,22.72 -133.26,47.46 -196.87,74.2 -63.6,26.76 -123.67,55.03 -180.2,84.82 -56.54,29.77 -107.03,59.81 -151.45,90.09 -50.48,33.32 -98.43,67.9 -143.87,103.75 -45.42,35.84 -84.29,71.42 -116.61,106.76 -32.31,35.33 -55.52,70.42 -69.66,105.25 -14.13,34.83 -14.89,67.89 -2.26,99.19 12.61,31.3 40.88,60.58 84.79,87.84 43.92,27.25 107.79,51.48 191.58,72.68 43.42,11.11 89.61,22.97 138.57,35.59 48.97,12.63 97.42,27.26 145.38,43.92 47.95,16.66 94.65,35.59 140.08,56.8 45.43,21.2 86.32,45.92 122.67,74.2 52.49,40.38 87.83,80.27 106,119.64 18.17,39.37 23.73,78.24 16.66,116.61 -7.07,38.36 -24.74,76.47 -53,114.34 -28.27,37.85 -62.59,75.96 -102.98,114.32 -32.31,30.29 -67.65,59.82 -106.01,88.6 -38.36,28.78 -78.5,55.78 -120.39,81.02 -41.9,25.24 -85.32,47.45 -130.24,66.63 -44.94,19.18 -90.11,34.33 -135.54,45.43 -51.49,13.13 -102.73,20.19 -153.71,21.21 -50.99,1 -96.92,-3.54 -137.81,-13.63 -40.88,-10.1 -74.2,-25.75 -99.95,-46.94 -25.75,-21.21 -39.13,-47.46 -40.14,-78.76 -1,-27.26 7.83,-54.52 26.51,-81.77 18.68,-27.26 43.66,-53.51 74.97,-78.75 31.29,-25.25 66.63,-48.71 106,-70.42 39.37,-21.71 79.26,-40.89 119.63,-57.55 40.39,-16.66 79.77,-30.54 118.14,-41.64 38.36,-11.11 71.68,-18.69 99.94,-22.72l155.98 36.34c-18.17,4.04 -45.93,11.36 -83.28,21.97 -37.36,10.6 -78.5,23.72 -123.43,39.37 -44.93,15.65 -91.12,33.31 -138.57,53 -47.45,19.68 -90.1,40.38 -127.96,62.1 -37.87,21.7 -67.9,43.91 -90.12,66.62 -22.21,22.72 -31.29,44.68 -27.25,65.88 4.04,17.17 16.66,31.3 37.86,42.4 21.2,11.1 47.2,18.68 78,22.72 30.78,4.03 64.61,4.03 101.45,0 36.86,-4.04 72.95,-12.11 108.28,-24.23 78.75,-27.26 155.49,-63.1 230.19,-107.53 74.7,-44.41 141.34,-93.89 199.91,-148.41 47.44,-44.42 82.27,-85.3 104.48,-122.66 22.22,-37.35 30.29,-72.44 24.23,-105.24 -6.05,-32.83 -26.49,-64.63 -61.32,-95.42 -34.83,-30.79 -85.57,-61.34 -152.21,-91.62 -63.6,-29.27 -127.7,-51.75 -192.32,-67.39 -64.62,-15.65 -130.74,-33.56 -198.39,-53.76 -33.32,-10.09 -66.88,-19.68 -100.7,-28.78 -33.82,-9.07 -66.39,-20.69 -97.68,-34.83 -69.67,-33.32 -116.36,-69.91 -140.09,-109.79 -23.72,-39.88 -32.05,-81.01 -24.99,-123.42 7.07,-42.41 26.25,-84.8 57.56,-127.22 31.29,-42.39 66.88,-82.52 106.76,-120.38 39.88,-37.86 80.51,-72.2 121.91,-102.98 41.39,-30.8 76.22,-55.78 104.49,-74.96 55.52,-37.35 120.14,-74.97 193.85,-112.83 73.7,-37.86 151.93,-72.94 234.72,-105.25 82.79,-32.3 168.1,-60.32 255.94,-84.05 87.83,-23.73 173.65,-40.13 257.45,-49.21 80.77,-9.09 160.01,-10.6 237.76,-4.55 77.74,6.06 153.95,29.28 228.67,69.67 48.46,26.25 79.25,56.03 92.38,89.34 13.13,33.32 14.38,67.13 3.78,101.47 -10.6,34.33 -29.02,67.65 -55.27,99.94 -26.25,32.31 -54.53,60.58 -84.81,84.81 -35.34,29.29 -74.46,55.52 -117.36,78.76 -42.91,23.21 -86.32,44.16 -130.24,62.84 -43.92,18.67 -86.82,35.09 -128.72,49.21 -41.9,14.14 -79.01,26.25 -111.32,36.35l89.36 -116.61zm25.74 528.53c39.37,0 77.24,6.05 113.58,18.17l110.55 -165.07 87.83 -7.57 -134.77 202.93c32.3,20.19 58.55,45.43 78.75,75.72 20.18,30.29 30.78,66.13 31.8,107.52 1,27.26 -4.04,54.26 -15.16,81.02 -11.09,26.75 -26.75,52.25 -46.94,76.48 29.28,-18.17 58.56,-37.61 87.84,-58.3 29.28,-20.7 57.04,-42.66 83.29,-65.88l39.37 43.91c-58.56,45.44 -109.03,81.78 -151.43,109.04 -42.41,27.25 -81.03,49.47 -115.86,66.63 -34.83,17.17 -67.64,32.06 -98.44,44.68 -30.78,12.62 -63.85,27.52 -99.18,44.67 -2.03,-9.08 -5.56,-19.69 -10.61,-31.8 -5.05,-12.12 -10.09,-24.23 -15.14,-36.35 23.22,-8.08 48.46,-20.19 75.72,-36.34 27.26,-16.16 52.75,-35.08 76.48,-56.79 23.73,-21.71 44.93,-45.43 63.6,-71.18 18.68,-25.74 31.3,-51.99 37.86,-78.74 6.56,-26.77 5.31,-53.26 -3.79,-79.51 -9.09,-26.25 -28.27,-50.99 -57.54,-74.21 -116.11,175.68 -232.97,353.36 -350.58,533.07 -117.62,179.72 -231.96,352.85 -343.01,519.44l-89.36 0 717.83 -1082.79c-28.27,-8.08 -55.78,-12.63 -82.54,-13.63 -26.75,-1.01 -45.68,-0.51 -56.78,1.52l66.63 -66.64zm896.52 -12.11c8.08,5.04 13.38,12.62 15.91,22.71 2.52,10.09 2.52,21.2 0,33.32 -2.53,12.11 -7.83,24.73 -15.91,37.85 -8.08,13.13 -18.17,25.75 -30.28,37.86 -11.1,2.03 -22.97,3.28 -35.59,3.79 -12.62,0.51 -25,0.76 -37.11,0.76 15.15,-16.15 25.24,-31.29 30.29,-45.43 5.06,-14.14 5.06,-25.24 0,-33.32 -5.05,-8.08 -14.88,-12.11 -29.53,-12.11 -14.64,0 -34.08,6.05 -58.3,18.17 -16.15,8.08 -31.3,16.16 -45.44,24.22 -14.13,8.08 -28.26,17.18 -42.39,27.26 -21.21,15.15 -41.15,30.8 -59.83,46.95 -18.67,16.16 -38.12,33.32 -58.3,51.49 -7.07,7.07 -19.94,21.7 -38.61,43.92 -18.69,22.21 -36.86,46.43 -54.53,72.68 -17.66,26.25 -31.54,51.49 -41.64,75.74 -10.1,24.22 -10.1,41.88 0,52.99 6.05,7.07 15.64,8.59 28.77,4.55 13.12,-4.04 27.77,-11.36 43.92,-21.96 16.15,-10.6 33.83,-23.47 53.01,-38.62 19.18,-15.14 37.86,-30.8 56.03,-46.94 18.17,-16.17 36.34,-33.32 54.52,-51.5 18.16,-18.17 35.33,-35.84 51.48,-52.99 16.16,-17.17 31.04,-33.32 44.68,-48.47 13.63,-15.14 24.99,-28.27 34.07,-39.38l78.74 4.55c-14.12,14.14 -28.52,29.78 -43.15,46.94 -14.63,17.17 -30.54,34.84 -47.7,53.02 -14.14,18.16 -29.29,40.63 -45.43,67.38 -16.16,26.76 -29.04,50.73 -38.63,71.94 -9.59,21.19 -13.62,36.85 -12.11,46.94 1.51,10.09 13.38,8.08 35.59,-6.06 13.12,-9.09 30.8,-21.2 53,-36.34 22.21,-15.15 45.44,-30.79 69.66,-46.95 24.24,-16.15 47.46,-31.54 69.68,-46.19 22.2,-14.64 39.36,-26.5 51.47,-35.59l7.58 66.64c-15.14,11.1 -35.84,25.99 -62.09,44.67 -26.25,18.68 -53.76,37.36 -82.53,56.03 -28.77,18.68 -57.05,36.36 -84.81,53.01 -27.76,16.65 -50.73,28.01 -68.9,34.07 -21.21,8.07 -37.11,10.1 -47.71,6.06 -10.6,-4.04 -17.17,-11.86 -19.69,-23.48 -2.52,-11.6 -2.01,-25.74 1.52,-42.4 3.52,-16.66 8.33,-33.56 14.38,-50.73 -11.1,9.09 -21.45,17.93 -31.04,26.51 -9.59,8.57 -19.43,16.4 -29.53,23.47 -8.07,6.06 -20.94,14.63 -38.61,25.73 -17.68,11.12 -36.6,20.72 -56.8,28.78 -20.19,8.08 -39.63,12.37 -58.3,12.88 -18.68,0.5 -33.57,-6.31 -44.67,-20.45 -13.13,-18.17 -17.67,-41.9 -13.63,-71.17 4.03,-29.28 14.63,-61.08 31.8,-95.41 17.16,-34.33 39.62,-69.67 67.39,-106 27.76,-36.36 58.3,-70.68 91.62,-102.99 32.31,-30.28 66.38,-57.8 102.22,-82.54 35.84,-24.73 70.92,-44.41 105.25,-59.06 34.32,-14.63 67.14,-22.96 98.44,-24.98 31.29,-2.02 58.55,4.04 81.77,18.18z"/>
  </g>
 </g>
</svg>
